<svg xmlns="http://www.w3.org/2000/svg" width="60" height="60" viewBox="0 0 60 60">
  <g id="Group_2308" data-name="Group 2308" transform="translate(-29 -521)">
    <circle id="Ellipse_110" data-name="Ellipse 110" cx="30" cy="30" r="30" transform="translate(29 521)" fill="#014087"/>
    <g id="Iconly_Light-Outline_Add-User" data-name="Iconly/Light-Outline/Add-User" transform="translate(47 539.103)">
      <g id="Add-User" transform="translate(2 2)">
        <path id="Combined-Shape" d="M7.877,12.456H8.26c2.242.012,7.494.216,7.494,3.68,0,3.212-4.313,3.641-7.669,3.658H7.494C5.252,19.782,0,19.579,0,16.115,0,12.835,4.495,12.456,7.877,12.456Zm0,1.5c-4.231,0-6.377.727-6.377,2.159S3.646,18.3,7.877,18.3s6.377-.727,6.377-2.158C14.254,14.689,12.108,13.956,7.877,13.956ZM17.2,5.919a.75.75,0,0,1,.75.75V7.923h1.3a.75.75,0,0,1,0,1.5h-1.3V10.68a.75.75,0,0,1-1.5,0V9.423H15.16a.75.75,0,0,1,0-1.5h1.294V6.669A.75.75,0,0,1,17.2,5.919ZM7.877,0a5.318,5.318,0,0,1,0,10.636H7.846A5.318,5.318,0,0,1,7.877,0Zm0,1.5A3.822,3.822,0,0,0,4.06,5.318,3.8,3.8,0,0,0,7.849,9.136l.028.741V9.136a3.818,3.818,0,1,0,0-7.636Z" fill="#fff" fill-rule="evenodd"/>
      </g>
    </g>
  </g>
</svg>
