<svg xmlns="http://www.w3.org/2000/svg" width="35" height="42" viewBox="0 0 35 42">
  <path id="Icon_metro-apple" data-name="Icon metro-apple" d="M34.668,24.244a9.49,9.49,0,0,1,4.64-8,10.119,10.119,0,0,0-7.86-4.162c-3.347-.331-6.531,1.926-8.23,1.926s-4.316-1.877-7.092-1.827A10.553,10.553,0,0,0,7.235,17.45C3.445,23.877,6.264,33.4,9.959,38.611c1.805,2.551,3.958,5.417,6.784,5.315,2.722-.106,3.751-1.721,7.042-1.721s4.216,1.721,7.1,1.668c2.929-.053,4.785-2.6,6.577-5.16a22.911,22.911,0,0,0,2.977-5.973,9.312,9.312,0,0,1-5.768-8.5ZM29.255,8.635a9.12,9.12,0,0,0,2.236-6.707,9.714,9.714,0,0,0-6.33,3.181,8.682,8.682,0,0,0-2.282,6.5A8.044,8.044,0,0,0,29.255,8.635Z" transform="translate(-5.436 -1.928)" fill="#fff"/>
</svg>
