<svg xmlns="http://www.w3.org/2000/svg" width="92.969" height="92.969" viewBox="0 0 92.969 92.969">
  <g id="audio" transform="translate(-6760 6224)">
    <rect id="_37a8c25812cb2f38b65ee44b5b0c4489" data-name="37a8c25812cb2f38b65ee44b5b0c4489" width="92.969" height="92.969" rx="13" transform="translate(6760 -6224)" fill="#3874b9"/>
    <path id="Icon_awesome-headphones" data-name="Icon awesome-headphones" d="M24.914,2.25A24.789,24.789,0,0,0,0,26.94V31.57a3.084,3.084,0,0,0,1.722,2.76l1.4.694A10.855,10.855,0,0,0,14.014,45.458H16.35a2.325,2.325,0,0,0,2.336-2.315V26.169a2.325,2.325,0,0,0-2.336-2.315H14.014A10.914,10.914,0,0,0,6.228,27.1V26.94a18.686,18.686,0,0,1,37.37,0V27.1a10.914,10.914,0,0,0-7.785-3.243H33.478a2.325,2.325,0,0,0-2.336,2.315V43.143a2.325,2.325,0,0,0,2.336,2.315h2.336A10.855,10.855,0,0,0,46.706,35.024l1.4-.694a3.084,3.084,0,0,0,1.722-2.76V26.94A24.789,24.789,0,0,0,24.914,2.25Z" transform="translate(6782 -6201.25)" fill="#fff"/>
  </g>
</svg>
