<svg xmlns="http://www.w3.org/2000/svg" width="63.899" height="61.529" viewBox="0 0 63.899 61.529">
  <path id="Broadcast_light" d="M15.326,61.924,12.683,51.868a3.363,3.363,0,0,1-6.472-.2L2.361,37.018A3.454,3.454,0,0,1,4.752,32.8a3.346,3.346,0,0,1,3.55,1.22L44.846,10.495l-.405-1.44a4.627,4.627,0,0,1,3.1-5.707,4.514,4.514,0,0,1,5.6,3.163l3.78,13.44.356-.1a5.614,5.614,0,0,1,6.861,4.091l1.772,6.295a5.751,5.751,0,0,1-3.691,7.174l-.358.1L65.37,49.985a4.627,4.627,0,0,1-3.1,5.707,4.514,4.514,0,0,1-5.6-3.163l-.183-.651-36.372-.64,2.3,8.75a3.749,3.749,0,0,1-2.594,4.581,3.609,3.609,0,0,1-.952.128A3.683,3.683,0,0,1,15.326,61.924Z" transform="translate(-2.245 -3.168)" fill="#c6d0e2"/>
</svg>
