<svg xmlns="http://www.w3.org/2000/svg" width="35" height="35" viewBox="0 0 35 35">
  <path id="Icon_awesome-smile" data-name="Icon awesome-smile" d="M17.5.563A17.5,17.5,0,1,0,35,18.063,17.5,17.5,0,0,0,17.5.563Zm5.645,11.855a2.258,2.258,0,1,1-2.258,2.258A2.256,2.256,0,0,1,23.145,12.417Zm-11.29,0A2.258,2.258,0,1,1,9.6,14.675,2.256,2.256,0,0,1,11.855,12.417ZM25.6,24.427a10.541,10.541,0,0,1-16.2,0,1.13,1.13,0,0,1,1.736-1.447,8.291,8.291,0,0,0,12.73,0A1.13,1.13,0,0,1,25.6,24.427Z" transform="translate(0 -0.563)" fill="#98a0cc"/>
</svg>
