<svg xmlns="http://www.w3.org/2000/svg" width="33" height="33" viewBox="0 0 33 33">
  <g id="forword_icon" transform="translate(-1686 -136)">
    <rect id="Rectangle_2977" data-name="Rectangle 2977" width="33" height="33" transform="translate(1686 136)" fill="#fff" opacity="0"/>
    <path id="Icon_awesome-reply" data-name="Icon awesome-reply" d="M19.9,9.291l-6.955-6.78a.943.943,0,0,0-1.568.81V6.893C5.033,6.975,0,8.411,0,15.2a9.479,9.479,0,0,0,3.293,6.876.724.724,0,0,0,1.11-.831c-1.792-6.469.85-8.187,6.978-8.286v3.922a.943.943,0,0,0,1.568.81L19.9,10.912A1.164,1.164,0,0,0,19.9,9.291Z" transform="translate(1692.383 140.257)" fill="none" stroke="#fff" stroke-width="2.1"/>
  </g>
</svg>
