<svg xmlns="http://www.w3.org/2000/svg" width="14.581" height="14.581" viewBox="0 0 14.581 14.581">
  <g id="Icon_feather-sun" data-name="Icon feather-sun" transform="translate(0.75 0.75)">
    <path id="Path_3552" data-name="Path 3552" d="M16.446,13.473A2.973,2.973,0,1,1,13.473,10.5,2.973,2.973,0,0,1,16.446,13.473Z" transform="translate(-6.933 -6.933)" fill="#989fb9" stroke="#989fb9" stroke-linecap="round" stroke-linejoin="round" stroke-width="1.5"/>
    <path id="Path_3553" data-name="Path 3553" d="M18,1.5V2.689" transform="translate(-11.46 -1.5)" fill="none" stroke="#989fb9" stroke-linecap="round" stroke-linejoin="round" stroke-width="1.5"/>
    <path id="Path_3554" data-name="Path 3554" d="M18,31.5v1.189" transform="translate(-11.46 -19.608)" fill="none" stroke="#989fb9" stroke-linecap="round" stroke-linejoin="round" stroke-width="1.5"/>
    <path id="Path_3555" data-name="Path 3555" d="M6.33,6.33l.844.844" transform="translate(-4.415 -4.415)" fill="none" stroke="#989fb9" stroke-linecap="round" stroke-linejoin="round" stroke-width="1.5"/>
    <path id="Path_3556" data-name="Path 3556" d="M27.54,27.54l.844.844" transform="translate(-17.218 -17.218)" fill="none" stroke="#989fb9" stroke-linecap="round" stroke-linejoin="round" stroke-width="1.5"/>
    <path id="Path_3557" data-name="Path 3557" d="M1.5,18H2.689" transform="translate(-1.5 -11.46)" fill="none" stroke="#989fb9" stroke-linecap="round" stroke-linejoin="round" stroke-width="1.5"/>
    <path id="Path_3558" data-name="Path 3558" d="M31.5,18h1.189" transform="translate(-19.608 -11.46)" fill="none" stroke="#989fb9" stroke-linecap="round" stroke-linejoin="round" stroke-width="1.5"/>
    <path id="Path_3559" data-name="Path 3559" d="M6.33,28.384l.844-.844" transform="translate(-4.415 -17.218)" fill="none" stroke="#989fb9" stroke-linecap="round" stroke-linejoin="round" stroke-width="1.5"/>
    <path id="Path_3560" data-name="Path 3560" d="M27.54,7.174l.844-.844" transform="translate(-17.218 -4.415)" fill="none" stroke="#989fb9" stroke-linecap="round" stroke-linejoin="round" stroke-width="1.5"/>
  </g>
</svg>
