<svg width="40" height="48" viewBox="0 0 40 48" fill="none" xmlns="http://www.w3.org/2000/svg">
<path d="M0 8C0 3.58172 3.58172 0 8 0H20C31.0457 0 40 8.9543 40 20V40C40 44.4183 36.4183 48 32 48H8C3.58172 48 0 44.4183 0 40V8Z" fill="#014087"/>
<path d="M9.8125 28H8L10.7617 20H12.9414L15.6992 28H13.8867L11.8828 21.8281H11.8203L9.8125 28ZM9.69922 24.8555H13.9805V26.1758H9.69922V24.8555Z" fill="white"/>
<path d="M21.6035 20H23.2949V25.1953C23.2949 25.7786 23.1556 26.2891 22.877 26.7266C22.6009 27.1641 22.2142 27.5052 21.7168 27.75C21.2194 27.9922 20.64 28.1133 19.9785 28.1133C19.3145 28.1133 18.7337 27.9922 18.2363 27.75C17.7389 27.5052 17.3522 27.1641 17.0762 26.7266C16.8001 26.2891 16.6621 25.7786 16.6621 25.1953V20H18.3535V25.0508C18.3535 25.3555 18.4199 25.6263 18.5527 25.8633C18.6882 26.1003 18.8783 26.2865 19.123 26.4219C19.3678 26.5573 19.653 26.625 19.9785 26.625C20.3066 26.625 20.5918 26.5573 20.834 26.4219C21.0788 26.2865 21.2676 26.1003 21.4004 25.8633C21.5358 25.6263 21.6035 25.3555 21.6035 25.0508V20Z" fill="white"/>
<path d="M27.5225 28H24.6865V20H27.5459C28.3506 20 29.0433 20.1602 29.624 20.4805C30.2048 20.7982 30.6514 21.2552 30.9639 21.8516C31.279 22.4479 31.4365 23.1615 31.4365 23.9922C31.4365 24.8255 31.279 25.5417 30.9639 26.1406C30.6514 26.7396 30.2021 27.1992 29.6162 27.5195C29.0329 27.8398 28.335 28 27.5225 28ZM26.3779 26.5508H27.4521C27.9521 26.5508 28.3727 26.4622 28.7139 26.2852C29.0576 26.1055 29.3154 25.8281 29.4873 25.4531C29.6618 25.0755 29.749 24.5885 29.749 23.9922C29.749 23.401 29.6618 22.918 29.4873 22.543C29.3154 22.168 29.0589 21.8919 28.7178 21.7148C28.3766 21.5378 27.9561 21.4492 27.4561 21.4492H26.3779V26.5508Z" fill="white"/>
</svg>
