<svg width="40" height="48" viewBox="0 0 40 48" fill="none" xmlns="http://www.w3.org/2000/svg">
<path d="M0 8C0 3.58172 3.58172 0 8 0H20C31.0457 0 40 8.9543 40 20V40C40 44.4183 36.4183 48 32 48H8C3.58172 48 0 44.4183 0 40V8Z" fill="#3874B9"/>
<path d="M13.7477 28H12L14.663 20H16.7648L19.4241 28H17.6763L15.744 21.8281H15.6838L13.7477 28ZM13.6385 24.8555H17.7667V26.1758H13.6385V24.8555Z" fill="white"/>
<path d="M20.3056 20L22.1701 26.0781H22.2416L24.1099 20H25.9179L23.2586 28H21.1568L18.4938 20H20.3056Z" fill="white"/>
<path d="M28 20V28H26.369V20H28Z" fill="white"/>
<path d="M13.7477 28H12L14.663 20H16.7648L19.4241 28H17.6763L15.744 21.8281H15.6838L13.7477 28ZM13.6385 24.8555H17.7667V26.1758H13.6385V24.8555Z" fill="white"/>
<path d="M20.3056 20L22.1701 26.0781H22.2416L24.1099 20H25.9179L23.2586 28H21.1568L18.4938 20H20.3056Z" fill="white"/>
<path d="M28 20V28H26.369V20H28Z" fill="white"/>
</svg>
