<svg width="40" height="48" viewBox="0 0 40 48" fill="none" xmlns="http://www.w3.org/2000/svg">
<path d="M0 8C0 3.58172 3.58172 0 8 0H20C31.0457 0 40 8.9543 40 20V40C40 44.4183 36.4183 48 32 48H8C3.58172 48 0 44.4183 0 40V8Z" fill="white"/>
<path d="M11.8359 29H9V21H11.8594C12.6641 21 13.3568 21.1602 13.9375 21.4805C14.5182 21.7982 14.9648 22.2552 15.2773 22.8516C15.5924 23.4479 15.75 24.1615 15.75 24.9922C15.75 25.8255 15.5924 26.5417 15.2773 27.1406C14.9648 27.7396 14.5156 28.1992 13.9297 28.5195C13.3464 28.8398 12.6484 29 11.8359 29ZM10.6914 27.5508H11.7656C12.2656 27.5508 12.6862 27.4622 13.0273 27.2852C13.3711 27.1055 13.6289 26.8281 13.8008 26.4531C13.9753 26.0755 14.0625 25.5885 14.0625 24.9922C14.0625 24.401 13.9753 23.918 13.8008 23.543C13.6289 23.168 13.3724 22.8919 13.0312 22.7148C12.6901 22.5378 12.2695 22.4492 11.7695 22.4492H10.6914V27.5508Z" fill="#3874B9"/>
<path d="M17.9307 29H16.1182L18.8799 21H21.0596L23.8174 29H22.0049L20.001 22.8281H19.9385L17.9307 29ZM17.8174 25.8555H22.0986V27.1758H17.8174V25.8555Z" fill="#3874B9"/>
<path d="M23.498 22.3945V21H30.0684V22.3945H27.6191V29H25.9473V22.3945H23.498Z" fill="#3874B9"/>
</svg>
