<svg width="40" height="48" viewBox="0 0 40 48" fill="none" xmlns="http://www.w3.org/2000/svg">
<path d="M0 8C0 3.58172 3.58172 0 8 0H20C31.0457 0 40 8.9543 40 20V40C40 44.4183 36.4183 48 32 48H8C3.58172 48 0 44.4183 0 40V8Z" fill="white"/>
<path d="M12.8359 28H10V20H12.8594C13.6641 20 14.3568 20.1602 14.9375 20.4805C15.5182 20.7982 15.9648 21.2552 16.2773 21.8516C16.5924 22.4479 16.75 23.1615 16.75 23.9922C16.75 24.8255 16.5924 25.5417 16.2773 26.1406C15.9648 26.7396 15.5156 27.1992 14.9297 27.5195C14.3464 27.8398 13.6484 28 12.8359 28ZM11.6914 26.5508H12.7656C13.2656 26.5508 13.6862 26.4622 14.0273 26.2852C14.3711 26.1055 14.6289 25.8281 14.8008 25.4531C14.9753 25.0755 15.0625 24.5885 15.0625 23.9922C15.0625 23.401 14.9753 22.918 14.8008 22.543C14.6289 22.168 14.3724 21.8919 14.0312 21.7148C13.6901 21.5378 13.2695 21.4492 12.7695 21.4492H11.6914V26.5508Z" fill="#3874B9"/>
<path d="M18.0029 28V20H21.2061C21.7946 20 22.2855 20.0872 22.6787 20.2617C23.0719 20.4362 23.3675 20.6784 23.5654 20.9883C23.7633 21.2956 23.8623 21.6497 23.8623 22.0508C23.8623 22.3633 23.7998 22.638 23.6748 22.875C23.5498 23.1094 23.3779 23.3021 23.1592 23.4531C22.943 23.6016 22.6956 23.707 22.417 23.7695V23.8477C22.7217 23.8607 23.0068 23.9466 23.2725 24.1055C23.5407 24.2643 23.7581 24.487 23.9248 24.7734C24.0915 25.0573 24.1748 25.3958 24.1748 25.7891C24.1748 26.2135 24.0693 26.5924 23.8584 26.9258C23.6501 27.2565 23.3415 27.5182 22.9326 27.7109C22.5238 27.9036 22.0199 28 21.4209 28H18.0029ZM19.6943 26.6172H21.0732C21.5446 26.6172 21.8883 26.5273 22.1045 26.3477C22.3206 26.1654 22.4287 25.9232 22.4287 25.6211C22.4287 25.3997 22.3753 25.2044 22.2686 25.0352C22.1618 24.8659 22.0094 24.7331 21.8115 24.6367C21.6162 24.5404 21.3831 24.4922 21.1123 24.4922H19.6943V26.6172ZM19.6943 23.3477H20.9482C21.18 23.3477 21.3857 23.3073 21.5654 23.2266C21.7477 23.1432 21.891 23.026 21.9951 22.875C22.1019 22.724 22.1553 22.543 22.1553 22.332C22.1553 22.043 22.0524 21.8099 21.8467 21.6328C21.6436 21.4557 21.3545 21.3672 20.9795 21.3672H19.6943V23.3477Z" fill="#3874B9"/>
<path d="M25.2754 28V20H30.5723V21.3945H26.9668V23.3008H30.2207V24.6953H26.9668V28H25.2754Z" fill="#3874B9"/>
</svg>
