<svg width="40" height="48" viewBox="0 0 40 48" fill="none" xmlns="http://www.w3.org/2000/svg">
<path d="M0 8C0 3.58172 3.58172 0 8 0H20C31.0457 0 40 8.9543 40 20V40C40 44.4183 36.4183 48 32 48H8C3.58172 48 0 44.4183 0 40V8Z" fill="white"/>
<path d="M12.8359 28H10V20H12.8594C13.6641 20 14.3568 20.1602 14.9375 20.4805C15.5182 20.7982 15.9648 21.2552 16.2773 21.8516C16.5924 22.4479 16.75 23.1615 16.75 23.9922C16.75 24.8255 16.5924 25.5417 16.2773 26.1406C15.9648 26.7396 15.5156 27.1992 14.9297 27.5195C14.3464 27.8398 13.6484 28 12.8359 28ZM11.6914 26.5508H12.7656C13.2656 26.5508 13.6862 26.4622 14.0273 26.2852C14.3711 26.1055 14.6289 25.8281 14.8008 25.4531C14.9753 25.0755 15.0625 24.5885 15.0625 23.9922C15.0625 23.401 14.9753 22.918 14.8008 22.543C14.6289 22.168 14.3724 21.8919 14.0312 21.7148C13.6901 21.5378 13.2695 21.4492 12.7695 21.4492H11.6914V26.5508Z" fill="#3874B9"/>
<path d="M18.0029 28V20H23.3936V21.3945H19.6943V23.3008H23.1162V24.6953H19.6943V26.6055H23.4092V28H18.0029Z" fill="#3874B9"/>
<path d="M24.7383 28V20H27.9414C28.5299 20 29.0208 20.0872 29.4141 20.2617C29.8073 20.4362 30.1029 20.6784 30.3008 20.9883C30.4987 21.2956 30.5977 21.6497 30.5977 22.0508C30.5977 22.3633 30.5352 22.638 30.4102 22.875C30.2852 23.1094 30.1133 23.3021 29.8945 23.4531C29.6784 23.6016 29.431 23.707 29.1523 23.7695V23.8477C29.457 23.8607 29.7422 23.9466 30.0078 24.1055C30.276 24.2643 30.4935 24.487 30.6602 24.7734C30.8268 25.0573 30.9102 25.3958 30.9102 25.7891C30.9102 26.2135 30.8047 26.5924 30.5938 26.9258C30.3854 27.2565 30.0768 27.5182 29.668 27.7109C29.2591 27.9036 28.7552 28 28.1562 28H24.7383ZM26.4297 26.6172H27.8086C28.2799 26.6172 28.6237 26.5273 28.8398 26.3477C29.056 26.1654 29.1641 25.9232 29.1641 25.6211C29.1641 25.3997 29.1107 25.2044 29.0039 25.0352C28.8971 24.8659 28.7448 24.7331 28.5469 24.6367C28.3516 24.5404 28.1185 24.4922 27.8477 24.4922H26.4297V26.6172ZM26.4297 23.3477H27.6836C27.9154 23.3477 28.1211 23.3073 28.3008 23.2266C28.4831 23.1432 28.6263 23.026 28.7305 22.875C28.8372 22.724 28.8906 22.543 28.8906 22.332C28.8906 22.043 28.7878 21.8099 28.582 21.6328C28.3789 21.4557 28.0898 21.3672 27.7148 21.3672H26.4297V23.3477Z" fill="#3874B9"/>
</svg>
