<svg width="40" height="48" viewBox="0 0 40 48" fill="none" xmlns="http://www.w3.org/2000/svg">
<path d="M0 8C0 3.58172 3.58172 0 8 0H20C31.0457 0 40 8.9543 40 20V40C40 44.4183 36.4183 48 32 48H8C3.58172 48 0 44.4183 0 40V8Z" fill="white"/>
<path d="M12.8359 28H10V20H12.8594C13.6641 20 14.3568 20.1602 14.9375 20.4805C15.5182 20.7982 15.9648 21.2552 16.2773 21.8516C16.5924 22.4479 16.75 23.1615 16.75 23.9922C16.75 24.8255 16.5924 25.5417 16.2773 26.1406C15.9648 26.7396 15.5156 27.1992 14.9297 27.5195C14.3464 27.8398 13.6484 28 12.8359 28ZM11.6914 26.5508H12.7656C13.2656 26.5508 13.6862 26.4622 14.0273 26.2852C14.3711 26.1055 14.6289 25.8281 14.8008 25.4531C14.9753 25.0755 15.0625 24.5885 15.0625 23.9922C15.0625 23.401 14.9753 22.918 14.8008 22.543C14.6289 22.168 14.3724 21.8919 14.0312 21.7148C13.6901 21.5378 13.2695 21.4492 12.7695 21.4492H11.6914V26.5508Z" fill="#3874B9"/>
<path d="M18.0029 28V20H19.6943V26.6055H23.124V28H18.0029Z" fill="#3874B9"/>
<path d="M24.2441 28V20H25.9355V26.6055H29.3652V28H24.2441Z" fill="#3874B9"/>
</svg>
