<svg width="40" height="48" viewBox="0 0 40 48" fill="none" xmlns="http://www.w3.org/2000/svg">
<path d="M0 8C0 3.58172 3.58172 0 8 0H20C31.0457 0 40 8.9543 40 20V40C40 44.4183 36.4183 48 32 48H8C3.58172 48 0 44.4183 0 40V8Z" fill="#3874B9"/>
<path d="M10.987 27.8935H8V20.1065H11.0117C11.8593 20.1065 12.5889 20.2624 13.2006 20.5741C13.8122 20.8834 14.2826 21.3283 14.6118 21.9087C14.9437 22.4892 15.1096 23.1838 15.1096 23.9924C15.1096 24.8035 14.9437 25.5006 14.6118 26.0837C14.2826 26.6667 13.8095 27.1141 13.1923 27.4259C12.5779 27.7376 11.8428 27.8935 10.987 27.8935ZM9.78152 26.4829H10.913C11.4396 26.4829 11.8826 26.3967 12.2419 26.2243C12.604 26.0494 12.8755 25.7795 13.0566 25.4144C13.2403 25.0469 13.3322 24.5729 13.3322 23.9924C13.3322 23.417 13.2403 22.9468 13.0566 22.5817C12.8755 22.2167 12.6053 21.948 12.246 21.7757C11.8867 21.6033 11.4437 21.5171 10.9171 21.5171H9.78152V26.4829Z" fill="white"/>
<path d="M23.7091 24C23.7091 24.8492 23.5349 25.5716 23.1866 26.1673C22.841 26.763 22.3692 27.218 21.7712 27.5323C21.176 27.8441 20.5068 28 19.7634 28C19.0146 28 18.3426 27.8428 17.7474 27.5285C17.1522 27.2142 16.6818 26.7592 16.3362 26.1635C15.9906 25.5678 15.8177 24.8466 15.8177 24C15.8177 23.1508 15.9906 22.4284 16.3362 21.8327C16.6818 21.237 17.1522 20.7833 17.7474 20.4715C18.3426 20.1572 19.0146 20 19.7634 20C20.5068 20 21.176 20.1572 21.7712 20.4715C22.3692 20.7833 22.841 21.237 23.1866 21.8327C23.5349 22.4284 23.7091 23.1508 23.7091 24ZM21.9029 24C21.9029 23.4499 21.8137 22.9861 21.6355 22.6084C21.4599 22.2307 21.2117 21.9442 20.8908 21.749C20.5698 21.5539 20.1941 21.4563 19.7634 21.4563C19.3328 21.4563 18.957 21.5539 18.6361 21.749C18.3152 21.9442 18.0656 22.2307 17.8873 22.6084C17.7117 22.9861 17.624 23.4499 17.624 24C17.624 24.5501 17.7117 25.0139 17.8873 25.3916C18.0656 25.7693 18.3152 26.0558 18.6361 26.251C18.957 26.4461 19.3328 26.5437 19.7634 26.5437C20.1941 26.5437 20.5698 26.4461 20.8908 26.251C21.2117 26.0558 21.4599 25.7693 21.6355 25.3916C21.8137 25.0139 21.9029 24.5501 21.9029 24Z" fill="white"/>
<path d="M32 22.8327H30.1979C30.165 22.6172 30.0978 22.4259 29.9963 22.2586C29.8948 22.0887 29.7645 21.9442 29.6054 21.8251C29.4464 21.706 29.2626 21.6147 29.0541 21.5513C28.8484 21.488 28.6248 21.4563 28.3835 21.4563C27.9473 21.4563 27.5675 21.5564 27.2438 21.7567C26.9201 21.9544 26.6692 22.2433 26.4909 22.6236C26.3126 23.0013 26.2234 23.4601 26.2234 24C26.2234 24.5551 26.3126 25.0215 26.4909 25.3992C26.6719 25.7769 26.9242 26.0621 27.2479 26.2548C27.5716 26.4474 27.946 26.5437 28.3711 26.5437C28.6098 26.5437 28.8306 26.5146 29.0335 26.4563C29.2393 26.398 29.4217 26.3131 29.5808 26.2015C29.7398 26.0875 29.8715 25.9493 29.9757 25.7871C30.0827 25.6248 30.1568 25.4398 30.1979 25.2319L32 25.2395C31.9534 25.597 31.8368 25.9417 31.6503 26.2738C31.4665 26.6033 31.2183 26.8986 30.9056 27.1597C30.5956 27.4183 30.2253 27.6236 29.7947 27.7757C29.3668 27.9252 28.8827 28 28.3423 28C27.5908 28 26.9188 27.8428 26.3263 27.5285C25.7366 27.2142 25.2703 26.7592 24.9274 26.1635C24.5873 25.5678 24.4172 24.8466 24.4172 24C24.4172 23.1508 24.59 22.4284 24.9356 21.8327C25.2812 21.237 25.7503 20.7833 26.3427 20.4715C26.9352 20.1572 27.6017 20 28.3423 20C28.8306 20 29.2831 20.0634 29.7001 20.1901C30.1197 20.3169 30.4914 20.5019 30.8151 20.7452C31.1387 20.9861 31.402 21.2814 31.605 21.6312C31.8107 21.981 31.9424 22.3815 32 22.8327Z" fill="white"/>
</svg>
