<svg width="40" height="48" viewBox="0 0 40 48" fill="none" xmlns="http://www.w3.org/2000/svg">
<path d="M0 8C0 3.58172 3.58172 0 8 0H20C31.0457 0 40 8.9543 40 20V40C40 44.4183 36.4183 48 32 48H8C3.58172 48 0 44.4183 0 40V8Z" fill="white"/>
<path d="M9.33672 26.9202H7V21.0798H9.35603C10.0191 21.0798 10.5898 21.1968 11.0683 21.4306C11.5468 21.6625 11.9148 21.9962 12.1723 22.4316C12.432 22.8669 12.5618 23.3878 12.5618 23.9943C12.5618 24.6027 12.432 25.1255 12.1723 25.5627C11.9148 26 11.5447 26.3356 11.0619 26.5694C10.5812 26.8032 10.0062 26.9202 9.33672 26.9202ZM8.39366 25.8622H9.27878C9.69077 25.8622 10.0373 25.7975 10.3184 25.6683C10.6016 25.5371 10.8141 25.3346 10.9557 25.0608C11.0994 24.7852 11.1713 24.4297 11.1713 23.9943C11.1713 23.5627 11.0994 23.2101 10.9557 22.9363C10.8141 22.6625 10.6027 22.461 10.3216 22.3317C10.0405 22.2025 9.69398 22.1378 9.282 22.1378H8.39366V25.8622Z" fill="#3874B9"/>
<path d="M19.6516 24C19.6516 24.6369 19.5153 25.1787 19.2428 25.6255C18.9725 26.0722 18.6034 26.4135 18.1356 26.6492C17.67 26.8831 17.1464 27 16.5649 27C15.9791 27 15.4534 26.8821 14.9878 26.6464C14.5222 26.4106 14.1542 26.0694 13.8838 25.6226C13.6135 25.1759 13.4783 24.635 13.4783 24C13.4783 23.3631 13.6135 22.8213 13.8838 22.3745C14.1542 21.9278 14.5222 21.5875 14.9878 21.3536C15.4534 21.1179 15.9791 21 16.5649 21C17.1464 21 17.67 21.1179 18.1356 21.3536C18.6034 21.5875 18.9725 21.9278 19.2428 22.3745C19.5153 22.8213 19.6516 23.3631 19.6516 24ZM18.2386 24C18.2386 23.5875 18.1689 23.2395 18.0294 22.9563C17.8921 22.673 17.6979 22.4582 17.4468 22.3118C17.1958 22.1654 16.9018 22.0922 16.5649 22.0922C16.228 22.0922 15.9341 22.1654 15.683 22.3118C15.432 22.4582 15.2367 22.673 15.0972 22.9563C14.9599 23.2395 14.8912 23.5875 14.8912 24C14.8912 24.4125 14.9599 24.7605 15.0972 25.0437C15.2367 25.327 15.432 25.5418 15.683 25.6882C15.9341 25.8346 16.228 25.9078 16.5649 25.9078C16.9018 25.9078 17.1958 25.8346 17.4468 25.6882C17.6979 25.5418 17.8921 25.327 18.0294 25.0437C18.1689 24.7605 18.2386 24.4125 18.2386 24Z" fill="#3874B9"/>
<path d="M26.5 23.1245H25.0902C25.0645 22.9629 25.0119 22.8194 24.9325 22.6939C24.8531 22.5665 24.7512 22.4582 24.6268 22.3688C24.5023 22.2795 24.3585 22.211 24.1955 22.1635C24.0345 22.116 23.8597 22.0922 23.6708 22.0922C23.3297 22.0922 23.0325 22.1673 22.7793 22.3175C22.5261 22.4658 22.3297 22.6825 22.1903 22.9677C22.0508 23.251 21.9811 23.5951 21.9811 24C21.9811 24.4163 22.0508 24.7662 22.1903 25.0494C22.3319 25.3327 22.5293 25.5466 22.7825 25.6911C23.0357 25.8356 23.3286 25.9078 23.6612 25.9078C23.8479 25.9078 24.0206 25.8859 24.1794 25.8422C24.3403 25.7985 24.483 25.7348 24.6075 25.6511C24.7319 25.5656 24.8349 25.462 24.9164 25.3403C25.0001 25.2186 25.0581 25.0798 25.0902 24.924L26.5 24.9297C26.4635 25.1977 26.3723 25.4563 26.2264 25.7053C26.0827 25.9525 25.8885 26.174 25.6438 26.3698C25.4014 26.5637 25.1117 26.7177 24.7748 26.8317C24.4401 26.9439 24.0614 27 23.6386 27C23.0507 27 22.525 26.8821 22.0615 26.6464C21.6002 26.4106 21.2354 26.0694 20.9672 25.6226C20.7011 25.1759 20.5681 24.635 20.5681 24C20.5681 23.3631 20.7033 22.8213 20.9736 22.3745C21.244 21.9278 21.6109 21.5875 22.0744 21.3536C22.5379 21.1179 23.0593 21 23.6386 21C24.0206 21 24.3746 21.0475 24.7008 21.1426C25.0291 21.2376 25.3198 21.3764 25.573 21.5589C25.8262 21.7395 26.0322 21.961 26.191 22.2234C26.3519 22.4857 26.4549 22.7861 26.5 23.1245Z" fill="#3874B9"/>
<path d="M28.6645 21.0798L29.9938 23.0703H30.0453L31.381 21.0798H32.9549L30.9433 24L33 26.9202H31.3971L30.0453 24.9268H29.9938L28.642 26.9202H27.0456L29.1087 24L27.0842 21.0798H28.6645Z" fill="#3874B9"/>
</svg>
