<svg width="40" height="48" viewBox="0 0 40 48" fill="none" xmlns="http://www.w3.org/2000/svg">
<path d="M0 8C0 3.58172 3.58172 0 8 0H20C31.0457 0 40 8.9543 40 20V40C40 44.4183 36.4183 48 32 48H8C3.58172 48 0 44.4183 0 40V8Z" fill="#3874B9"/>
<path d="M5 28.3722V21.0994H9.90057V22.3672H6.53764V24.1001H9.64844V25.3679H6.53764V27.1044H9.91477V28.3722H5Z" fill="white"/>
<path d="M12.5648 21.0994L14.0314 23.5781H14.0882L15.562 21.0994H17.2985L15.079 24.7358L17.3482 28.3722H15.5797L14.0882 25.8899H14.0314L12.54 28.3722H10.7786L13.0549 24.7358L10.8212 21.0994H12.5648Z" fill="white"/>
<path d="M24.3466 23.6456H22.7912C22.7628 23.4444 22.7048 23.2656 22.6172 23.1094C22.5296 22.9508 22.4171 22.8158 22.2798 22.7045C22.1425 22.5933 21.9839 22.508 21.804 22.4489C21.6264 22.3897 21.4335 22.3601 21.2251 22.3601C20.8487 22.3601 20.5208 22.4536 20.2415 22.6406C19.9621 22.8253 19.7455 23.0952 19.5916 23.4503C19.4377 23.803 19.3608 24.2315 19.3608 24.7358C19.3608 25.2543 19.4377 25.6899 19.5916 26.0426C19.7479 26.3954 19.9657 26.6617 20.245 26.8416C20.5244 27.0215 20.8475 27.1115 21.2145 27.1115C21.4205 27.1115 21.611 27.0843 21.7862 27.0298C21.9638 26.9754 22.1212 26.8961 22.2585 26.7919C22.3958 26.6854 22.5095 26.5563 22.5994 26.4048C22.6918 26.2533 22.7557 26.0805 22.7912 25.8864L24.3466 25.8935C24.3063 26.2273 24.2057 26.5492 24.0447 26.8594C23.8861 27.1671 23.6719 27.4429 23.402 27.6868C23.1345 27.9283 22.8149 28.12 22.4432 28.2621C22.0739 28.4018 21.656 28.4716 21.1896 28.4716C20.541 28.4716 19.9609 28.3248 19.4496 28.0313C18.9406 27.7377 18.5381 27.3127 18.2422 26.7564C17.9486 26.2 17.8018 25.5265 17.8018 24.7358C17.8018 23.9427 17.951 23.268 18.2493 22.7116C18.5476 22.1553 18.9524 21.7315 19.4638 21.4403C19.9751 21.1468 20.5504 21 21.1896 21C21.611 21 22.0017 21.0592 22.3615 21.1776C22.7237 21.2959 23.0445 21.4688 23.3239 21.696C23.6032 21.9209 23.8305 22.1967 24.0057 22.5234C24.1832 22.8501 24.2969 23.2242 24.3466 23.6456Z" fill="white"/>
<path d="M25.4492 28.3722V21.0994H30.3498V22.3672H26.9869V24.1001H30.0977V25.3679H26.9869V27.1044H30.364V28.3722H25.4492Z" fill="white"/>
<path d="M31.5723 28.3722V21.0994H33.1099V27.1044H36.2278V28.3722H31.5723Z" fill="white"/>
</svg>
