<svg width="40" height="48" viewBox="0 0 40 48" fill="none" xmlns="http://www.w3.org/2000/svg">
<path d="M0 8C0 3.58172 3.58172 0 8 0H20C31.0457 0 40 8.9543 40 20V40C40 44.4183 36.4183 48 32 48H8C3.58172 48 0 44.4183 0 40V8Z" fill="#014087"/>
<path d="M11.6914 20.1094V28.1094H10V20.1094H11.6914Z" fill="white"/>
<path d="M13.083 20.1094H15.1689L17.3721 25.4844H17.4658L19.6689 20.1094H21.7549V28.1094H20.1143V22.9023H20.0479L17.9775 28.0703H16.8604L14.79 22.8828H14.7236V28.1094H13.083V20.1094Z" fill="white"/>
<path d="M28.4531 22.6953C28.3984 22.5052 28.3216 22.3372 28.2227 22.1914C28.1237 22.043 28.0026 21.918 27.8594 21.8164C27.7188 21.7122 27.5573 21.6328 27.375 21.5781C27.1953 21.5234 26.9961 21.4961 26.7773 21.4961C26.3685 21.4961 26.0091 21.5977 25.6992 21.8008C25.3919 22.0039 25.1523 22.2995 24.9805 22.6875C24.8086 23.0729 24.7227 23.5443 24.7227 24.1016C24.7227 24.6589 24.8073 25.1328 24.9766 25.5234C25.1458 25.9141 25.3854 26.2122 25.6953 26.418C26.0052 26.6211 26.3711 26.7227 26.793 26.7227C27.1758 26.7227 27.5026 26.6549 27.7734 26.5195C28.0469 26.3815 28.2552 26.1875 28.3984 25.9375C28.5443 25.6875 28.6172 25.3919 28.6172 25.0508L28.9609 25.1016H26.8984V23.8281H30.2461V24.8359C30.2461 25.5391 30.0977 26.1432 29.8008 26.6484C29.5039 27.151 29.0951 27.5391 28.5742 27.8125C28.0534 28.0833 27.457 28.2188 26.7852 28.2188C26.0352 28.2188 25.3763 28.0534 24.8086 27.7227C24.2409 27.3893 23.7982 26.9167 23.4805 26.3047C23.1654 25.6901 23.0078 24.9609 23.0078 24.1172C23.0078 23.4688 23.1016 22.8906 23.2891 22.3828C23.4792 21.8724 23.7448 21.4401 24.0859 21.0859C24.4271 20.7318 24.8242 20.4622 25.2773 20.2773C25.7305 20.0924 26.2214 20 26.75 20C27.2031 20 27.625 20.0664 28.0156 20.1992C28.4063 20.3294 28.7526 20.5143 29.0547 20.7539C29.3594 20.9935 29.6081 21.2786 29.8008 21.6094C29.9935 21.9375 30.1172 22.2995 30.1719 22.6953H28.4531Z" fill="white"/>
</svg>
