<svg width="40" height="48" viewBox="0 0 40 48" fill="none" xmlns="http://www.w3.org/2000/svg">
<path d="M0 8C0 3.58172 3.58172 0 8 0H20C31.0457 0 40 8.9543 40 20V40C40 44.4183 36.4183 48 32 48H8C3.58172 48 0 44.4183 0 40V8Z" fill="#3874B9"/>
<path d="M8 20H10.0859L12.2891 25.375H12.3828L14.5859 20H16.6719V28H15.0313V22.793H14.9648L12.8945 27.9609H11.7773L9.70703 22.7734H9.64063V28H8V20Z" fill="white"/>
<path d="M18.0654 28V20H19.7568V23.5273H19.8623L22.7412 20H24.7686L21.7998 23.582L24.8037 28H22.7803L20.5889 24.7109L19.7568 25.7266V28H18.0654Z" fill="white"/>
<path d="M27.0947 20L29.0283 26.0781H29.1025L31.04 20H32.915L30.1572 28H27.9775L25.2158 20H27.0947Z" fill="white"/>
</svg>
