<svg width="40" height="48" viewBox="0 0 40 48" fill="none" xmlns="http://www.w3.org/2000/svg">
<path d="M0 8C0 3.58172 3.58172 0 8 0H20C31.0457 0 40 8.9543 40 20V40C40 44.4183 36.4183 48 32 48H8C3.58172 48 0 44.4183 0 40V8Z" fill="#3874B9"/>
<path d="M7 20.1094H9.08594L11.2891 25.4844H11.3828L13.5859 20.1094H15.6719V28.1094H14.0313V22.9023H13.9648L11.8945 28.0703H10.7773L8.70703 22.8828H8.64063V28.1094H7V20.1094Z" fill="white"/>
<path d="M24.417 24.1094C24.417 24.9818 24.2516 25.724 23.9209 26.3359C23.5928 26.9479 23.1449 27.4154 22.5771 27.7383C22.012 28.0586 21.3766 28.2188 20.6709 28.2188C19.96 28.2188 19.3219 28.0573 18.7568 27.7344C18.1917 27.4115 17.7451 26.944 17.417 26.332C17.0889 25.7201 16.9248 24.9792 16.9248 24.1094C16.9248 23.237 17.0889 22.4948 17.417 21.8828C17.7451 21.2708 18.1917 20.8047 18.7568 20.4844C19.3219 20.1615 19.96 20 20.6709 20C21.3766 20 22.012 20.1615 22.5771 20.4844C23.1449 20.8047 23.5928 21.2708 23.9209 21.8828C24.2516 22.4948 24.417 23.237 24.417 24.1094ZM22.7021 24.1094C22.7021 23.5443 22.6175 23.0677 22.4482 22.6797C22.2816 22.2917 22.0459 21.9974 21.7412 21.7969C21.4365 21.5964 21.0798 21.4961 20.6709 21.4961C20.262 21.4961 19.9053 21.5964 19.6006 21.7969C19.2959 21.9974 19.0589 22.2917 18.8896 22.6797C18.723 23.0677 18.6396 23.5443 18.6396 24.1094C18.6396 24.6745 18.723 25.151 18.8896 25.5391C19.0589 25.9271 19.2959 26.2214 19.6006 26.4219C19.9053 26.6224 20.262 26.7227 20.6709 26.7227C21.0798 26.7227 21.4365 26.6224 21.7412 26.4219C22.0459 26.2214 22.2816 25.9271 22.4482 25.5391C22.6175 25.151 22.7021 24.6745 22.7021 24.1094Z" fill="white"/>
<path d="M26.6641 20.1094L28.5977 26.1875H28.6719L30.6094 20.1094H32.4844L29.7266 28.1094H27.5469L24.7852 20.1094H26.6641Z" fill="white"/>
</svg>
