<svg width="40" height="48" viewBox="0 0 40 48" fill="none" xmlns="http://www.w3.org/2000/svg">
<path d="M0 8C0 3.58172 3.58172 0 8 0H20C31.0457 0 40 8.9543 40 20V40C40 44.4183 36.4183 48 32 48H8C3.58172 48 0 44.4183 0 40V8Z" fill="white"/>
<path d="M16.4922 24.1094C16.4922 24.9818 16.3268 25.724 15.9961 26.3359C15.668 26.9479 15.2201 27.4154 14.6523 27.7383C14.0872 28.0586 13.4518 28.2188 12.7461 28.2188C12.0352 28.2188 11.3971 28.0573 10.832 27.7344C10.2669 27.4115 9.82031 26.944 9.49219 26.332C9.16406 25.7201 9 24.9792 9 24.1094C9 23.237 9.16406 22.4948 9.49219 21.8828C9.82031 21.2708 10.2669 20.8047 10.832 20.4844C11.3971 20.1615 12.0352 20 12.7461 20C13.4518 20 14.0872 20.1615 14.6523 20.4844C15.2201 20.8047 15.668 21.2708 15.9961 21.8828C16.3268 22.4948 16.4922 23.237 16.4922 24.1094ZM14.7773 24.1094C14.7773 23.5443 14.6927 23.0677 14.5234 22.6797C14.3568 22.2917 14.1211 21.9974 13.8164 21.7969C13.5117 21.5964 13.1549 21.4961 12.7461 21.4961C12.3372 21.4961 11.9805 21.5964 11.6758 21.7969C11.3711 21.9974 11.1341 22.2917 10.9648 22.6797C10.7982 23.0677 10.7148 23.5443 10.7148 24.1094C10.7148 24.6745 10.7982 25.151 10.9648 25.5391C11.1341 25.9271 11.3711 26.2214 11.6758 26.4219C11.9805 26.6224 12.3372 26.7227 12.7461 26.7227C13.1549 26.7227 13.5117 26.6224 13.8164 26.4219C14.1211 26.2214 14.3568 25.9271 14.5234 25.5391C14.6927 25.151 14.7773 24.6745 14.7773 24.1094Z" fill="#3874B9"/>
<path d="M20.5811 28.1094H17.7451V20.1094H20.6045C21.4092 20.1094 22.1019 20.2695 22.6826 20.5898C23.2633 20.9076 23.71 21.3646 24.0225 21.9609C24.3376 22.5573 24.4951 23.2708 24.4951 24.1016C24.4951 24.9349 24.3376 25.651 24.0225 26.25C23.71 26.849 23.2607 27.3086 22.6748 27.6289C22.0915 27.9492 21.3936 28.1094 20.5811 28.1094ZM19.4365 26.6602H20.5107C21.0107 26.6602 21.4313 26.5716 21.7725 26.3945C22.1162 26.2148 22.374 25.9375 22.5459 25.5625C22.7204 25.1849 22.8076 24.6979 22.8076 24.1016C22.8076 23.5104 22.7204 23.0273 22.5459 22.6523C22.374 22.2773 22.1175 22.0013 21.7764 21.8242C21.4352 21.6471 21.0146 21.5586 20.5146 21.5586H19.4365V26.6602Z" fill="#3874B9"/>
<path d="M30.0879 22.4102C30.0566 22.0951 29.9225 21.8503 29.6855 21.6758C29.4486 21.5013 29.127 21.4141 28.7207 21.4141C28.4447 21.4141 28.2116 21.4531 28.0215 21.5313C27.8314 21.6068 27.6855 21.7122 27.584 21.8477C27.485 21.9831 27.4355 22.1367 27.4355 22.3086C27.4303 22.4518 27.4603 22.5768 27.5254 22.6836C27.5931 22.7904 27.6855 22.8828 27.8027 22.9609C27.9199 23.0365 28.0553 23.1029 28.209 23.1602C28.3626 23.2148 28.5267 23.2617 28.7012 23.3008L29.4199 23.4727C29.7689 23.5508 30.0892 23.6549 30.3809 23.7852C30.6725 23.9154 30.9251 24.0755 31.1387 24.2656C31.3522 24.4557 31.5176 24.6797 31.6348 24.9375C31.7546 25.1953 31.8158 25.4909 31.8184 25.8242C31.8158 26.3138 31.6908 26.7383 31.4434 27.0977C31.1986 27.4544 30.8444 27.7318 30.3809 27.9297C29.9199 28.125 29.3639 28.2227 28.7129 28.2227C28.0671 28.2227 27.5046 28.1237 27.0254 27.9258C26.5488 27.7279 26.1764 27.4349 25.9082 27.0469C25.6426 26.6563 25.5033 26.1732 25.4902 25.5977H27.127C27.1452 25.8659 27.222 26.0898 27.3574 26.2695C27.4954 26.4466 27.679 26.5807 27.9082 26.6719C28.14 26.7604 28.4017 26.8047 28.6934 26.8047C28.9798 26.8047 29.2285 26.763 29.4395 26.6797C29.653 26.5964 29.8184 26.4805 29.9355 26.332C30.0527 26.1836 30.1113 26.013 30.1113 25.8203C30.1113 25.6406 30.0579 25.4896 29.9512 25.3672C29.847 25.2448 29.6934 25.1406 29.4902 25.0547C29.2897 24.9688 29.0436 24.8906 28.752 24.8203L27.8809 24.6016C27.2064 24.4375 26.6738 24.181 26.2832 23.832C25.8926 23.4831 25.6986 23.013 25.7012 22.4219C25.6986 21.9375 25.8275 21.5143 26.0879 21.1523C26.3509 20.7904 26.7116 20.5078 27.1699 20.3047C27.6283 20.1016 28.1491 20 28.7324 20C29.3262 20 29.8444 20.1016 30.2871 20.3047C30.7324 20.5078 31.0788 20.7904 31.3262 21.1523C31.5736 21.5143 31.7012 21.9336 31.709 22.4102H30.0879Z" fill="#3874B9"/>
</svg>
