<svg width="40" height="48" viewBox="0 0 40 48" fill="none" xmlns="http://www.w3.org/2000/svg">
<path d="M0 8C0 3.58172 3.58172 0 8 0H20C31.0457 0 40 8.9543 40 20V40C40 44.4183 36.4183 48 32 48H8C3.58172 48 0 44.4183 0 40V8Z" fill="#3874B9"/>
<path d="M9 28V20H12.4002C13.0538 20 13.6107 20.1159 14.0708 20.3477C14.5309 20.5768 14.8815 20.8958 15.1228 21.3047C15.3669 21.7109 15.4889 22.1797 15.4889 22.7109C15.4889 23.2422 15.3655 23.7109 15.1186 24.1172C14.8717 24.5234 14.514 24.8398 14.0455 25.0664C13.5798 25.293 13.0159 25.4062 12.3539 25.4062H10.1867V24.0508H12.0593C12.41 24.0508 12.6989 23.9948 12.9262 23.8828C13.1562 23.7682 13.3273 23.6107 13.4396 23.4102C13.5546 23.207 13.6121 22.974 13.6121 22.7109C13.6121 22.4453 13.5546 22.2135 13.4396 22.0156C13.3273 21.8151 13.1562 21.6602 12.9262 21.5508C12.6961 21.4388 12.4044 21.3828 12.0509 21.3828H10.8221V28H9Z" fill="white"/>
<path d="M19.7275 28H16.6724V20H19.7528C20.6196 20 21.3659 20.1602 21.9915 20.4805C22.6171 20.7982 23.0982 21.2552 23.4349 21.8516C23.7743 22.4479 23.9441 23.1615 23.9441 23.9922C23.9441 24.8255 23.7743 25.5417 23.4349 26.1406C23.0982 26.7396 22.6143 27.1992 21.9831 27.5195C21.3547 27.8398 20.6028 28 19.7275 28ZM18.4945 26.5508H19.6518C20.1904 26.5508 20.6435 26.4622 21.011 26.2852C21.3813 26.1055 21.659 25.8281 21.8442 25.4531C22.0322 25.0755 22.1261 24.5885 22.1261 23.9922C22.1261 23.401 22.0322 22.918 21.8442 22.543C21.659 22.168 21.3827 21.8919 21.0152 21.7148C20.6477 21.5378 20.1946 21.4492 19.656 21.4492H18.4945V26.5508Z" fill="white"/>
<path d="M25.2938 28V20H31V21.3945H27.1159V23.3008H30.6213V24.6953H27.1159V28H25.2938Z" fill="white"/>
</svg>
