<svg width="40" height="48" viewBox="0 0 40 48" fill="none" xmlns="http://www.w3.org/2000/svg">
<path d="M0 8C0 3.58172 3.58172 0 8 0H20C31.0457 0 40 8.9543 40 20V40C40 44.4183 36.4183 48 32 48H8C3.58172 48 0 44.4183 0 40V8Z" fill="#3874B9"/>
<path d="M10 28V20H13.2158C13.834 20 14.3607 20.1159 14.7958 20.3477C15.2309 20.5768 15.5626 20.8958 15.7908 21.3047C16.0216 21.7109 16.137 22.1797 16.137 22.7109C16.137 23.2422 16.0203 23.7109 15.7868 24.1172C15.5533 24.5234 15.215 24.8398 14.7719 25.0664C14.3315 25.293 13.7982 25.4062 13.172 25.4062H11.1223V24.0508H12.8934C13.2251 24.0508 13.4984 23.9948 13.7133 23.8828C13.9308 23.7682 14.0927 23.6107 14.1988 23.4102C14.3076 23.207 14.362 22.974 14.362 22.7109C14.362 22.4453 14.3076 22.2135 14.1988 22.0156C14.0927 21.8151 13.9308 21.6602 13.7133 21.5508C13.4957 21.4388 13.2198 21.3828 12.8854 21.3828H11.7233V28H10Z" fill="white"/>
<path d="M16.8081 28V20H20.0239C20.6421 20 21.1688 20.1159 21.6039 20.3477C22.039 20.5768 22.3707 20.8958 22.5989 21.3047C22.8297 21.7109 22.9451 22.1797 22.9451 22.7109C22.9451 23.2422 22.8284 23.7109 22.5949 24.1172C22.3614 24.5234 22.0231 24.8398 21.58 25.0664C21.1396 25.293 20.6063 25.4062 19.9801 25.4062H17.9304V24.0508H19.7015C20.0332 24.0508 20.3065 23.9948 20.5214 23.8828C20.7389 23.7682 20.9008 23.6107 21.0069 23.4102C21.1157 23.207 21.1701 22.974 21.1701 22.7109C21.1701 22.4453 21.1157 22.2135 21.0069 22.0156C20.9008 21.8151 20.7389 21.6602 20.5214 21.5508C20.3038 21.4388 20.0279 21.3828 19.6935 21.3828H18.5314V28H16.8081Z" fill="white"/>
<path d="M23.3058 21.3945V20H30V21.3945H27.5046V28H25.8012V21.3945H23.3058Z" fill="white"/>
</svg>
