<svg width="40" height="48" viewBox="0 0 40 48" fill="none" xmlns="http://www.w3.org/2000/svg">
<path d="M0 8C0 3.58172 3.58172 0 8 0H20C31.0457 0 40 8.9543 40 20V40C40 44.4183 36.4183 48 32 48H8C3.58172 48 0 44.4183 0 40V8Z" fill="white"/>
<path d="M10 27.8898V20.1064H13.1421C13.7461 20.1064 14.2608 20.2192 14.6859 20.4447C15.1111 20.6676 15.4352 20.978 15.6581 21.3758C15.8837 21.771 15.9964 22.2271 15.9964 22.7439C15.9964 23.2608 15.8824 23.7169 15.6542 24.1121C15.4261 24.5074 15.0955 24.8152 14.6626 25.0356C14.2322 25.2561 13.7112 25.3663 13.0993 25.3663H11.0966V24.0475H12.8271C13.1512 24.0475 13.4182 23.993 13.6282 23.8841C13.8408 23.7726 13.9989 23.6193 14.1026 23.4242C14.2089 23.2266 14.2621 22.9998 14.2621 22.7439C14.2621 22.4855 14.2089 22.26 14.1026 22.0675C13.9989 21.8724 13.8408 21.7216 13.6282 21.6152C13.4156 21.5063 13.146 21.4518 12.8193 21.4518H11.6838V27.8898H10Z" fill="#3874B9"/>
<path d="M20.9177 22.3449C20.8866 22.0383 20.7531 21.8002 20.5172 21.6304C20.2813 21.4606 19.9611 21.3758 19.5567 21.3758C19.2819 21.3758 19.0499 21.4138 18.8606 21.4898C18.6713 21.5633 18.5262 21.6659 18.4251 21.7976C18.3265 21.9294 18.2773 22.0789 18.2773 22.2461C18.2721 22.3854 18.3019 22.507 18.3667 22.6109C18.4341 22.7148 18.5262 22.8048 18.6428 22.8808C18.7595 22.9542 18.8943 23.0188 19.0473 23.0746C19.2002 23.1278 19.3635 23.1734 19.5372 23.2114L20.2528 23.3786C20.6002 23.4546 20.919 23.556 21.2094 23.6827C21.4998 23.8093 21.7512 23.9652 21.9638 24.1501C22.1764 24.3351 22.341 24.553 22.4577 24.8038C22.5769 25.0546 22.6379 25.3422 22.6405 25.6665C22.6379 26.1428 22.5134 26.5558 22.2671 26.9055C22.0234 27.2526 21.6709 27.5224 21.2094 27.715C20.7505 27.905 20.197 28 19.5489 28C18.906 28 18.346 27.9037 17.869 27.7112C17.3945 27.5186 17.0238 27.2336 16.7568 26.8561C16.4924 26.476 16.3537 26.006 16.3407 25.4461H17.9701C17.9882 25.707 18.0647 25.9249 18.1995 26.0998C18.3369 26.2721 18.5197 26.4025 18.7478 26.4912C18.9786 26.5774 19.2391 26.6204 19.5295 26.6204C19.8146 26.6204 20.0622 26.5799 20.2722 26.4988C20.4848 26.4177 20.6494 26.305 20.7661 26.1606C20.8827 26.0162 20.9411 25.8502 20.9411 25.6627C20.9411 25.4879 20.8879 25.3409 20.7816 25.2219C20.6779 25.1028 20.525 25.0014 20.3228 24.9178C20.1231 24.8342 19.8782 24.7582 19.5878 24.6898L18.7206 24.477C18.0492 24.3173 17.519 24.0678 17.1301 23.7283C16.7412 23.3888 16.5481 22.9314 16.5507 22.3563C16.5481 21.885 16.6764 21.4733 16.9357 21.1211C17.1975 20.769 17.5566 20.4941 18.0129 20.2964C18.4691 20.0988 18.9876 20 19.5684 20C20.1594 20 20.6753 20.0988 21.1161 20.2964C21.5594 20.4941 21.9042 20.769 22.1505 21.1211C22.3968 21.4733 22.5238 21.8812 22.5316 22.3449H20.9177Z" fill="#3874B9"/>
<path d="M26.1035 27.8898H23.2803V20.1064H26.1268C26.9279 20.1064 27.6175 20.2622 28.1956 20.5739C28.7738 20.883 29.2184 21.3276 29.5295 21.9078C29.8432 22.488 30 23.1823 30 23.9905C30 24.8013 29.8432 25.498 29.5295 26.0808C29.2184 26.6635 28.7712 27.1107 28.1878 27.4223C27.6071 27.734 26.9123 27.8898 26.1035 27.8898ZM24.9641 26.4798H26.0335C26.5312 26.4798 26.9499 26.3937 27.2896 26.2214C27.6318 26.0466 27.8884 25.7767 28.0595 25.4119C28.2332 25.0445 28.3201 24.5707 28.3201 23.9905C28.3201 23.4154 28.2332 22.9454 28.0595 22.5805C27.8884 22.2157 27.6331 21.9471 27.2934 21.7748C26.9538 21.6025 26.5351 21.5164 26.0374 21.5164H24.9641V26.4798Z" fill="#3874B9"/>
</svg>
