<svg width="40" height="48" viewBox="0 0 40 48" fill="none" xmlns="http://www.w3.org/2000/svg">
<path d="M0 8C0 3.58172 3.58172 0 8 0H20C31.0457 0 40 8.9543 40 20V40C40 44.4183 36.4183 48 32 48H8C3.58172 48 0 44.4183 0 40V8Z" fill="white"/>
<path d="M9 28V20H12.3262C12.9629 20 13.5063 20.1081 13.9564 20.3242C14.4092 20.5378 14.7536 20.8411 14.9896 21.2344C15.2284 21.625 15.3478 22.0846 15.3478 22.6133C15.3478 23.1445 15.227 23.6016 14.9855 23.9844C14.744 24.3646 14.3941 24.6562 13.9358 24.8594C13.4802 25.0625 12.9286 25.1641 12.2809 25.1641H10.0538V23.8047H11.9928C12.3331 23.8047 12.6157 23.7604 12.8408 23.6719C13.0658 23.5833 13.2332 23.4505 13.343 23.2734C13.4555 23.0964 13.5118 22.8763 13.5118 22.6133C13.5118 22.3477 13.4555 22.1237 13.343 21.9414C13.2332 21.7591 13.0645 21.6211 12.8367 21.5273C12.6116 21.431 12.3276 21.3828 11.9845 21.3828H10.7825V28H9ZM13.553 24.3594L15.6483 28H13.6806L11.6305 24.3594H13.553Z" fill="#3874B9"/>
<path d="M17.5969 28H15.6868L18.5973 20H20.8943L23.8006 28H21.8905L19.7787 21.8281H19.7129L17.5969 28ZM17.4776 24.8555H21.9893V26.1758H17.4776V24.8555Z" fill="#3874B9"/>
<path d="M24.3517 28V20H27.6779C28.3146 20 28.858 20.1081 29.3081 20.3242C29.7609 20.5378 30.1053 20.8411 30.3413 21.2344C30.5801 21.625 30.6995 22.0846 30.6995 22.6133C30.6995 23.1445 30.5787 23.6016 30.3372 23.9844C30.0957 24.3646 29.7458 24.6562 29.2875 24.8594C28.8319 25.0625 28.2803 25.1641 27.6326 25.1641H25.4055V23.8047H27.3445C27.6848 23.8047 27.9674 23.7604 28.1925 23.6719C28.4175 23.5833 28.5849 23.4505 28.6947 23.2734C28.8072 23.0964 28.8635 22.8763 28.8635 22.6133C28.8635 22.3477 28.8072 22.1237 28.6947 21.9414C28.5849 21.7591 28.4161 21.6211 28.1884 21.5273C27.9633 21.431 27.6793 21.3828 27.3362 21.3828H26.1342V28H24.3517ZM28.9047 24.3594L31 28H29.0323L26.9822 24.3594H28.9047Z" fill="#3874B9"/>
</svg>
