<svg width="40" height="48" viewBox="0 0 40 48" fill="none" xmlns="http://www.w3.org/2000/svg">
<path d="M0 8C0 3.58172 3.58172 0 8 0H20C31.0457 0 40 8.9543 40 20V40C40 44.4183 36.4183 48 32 48H8C3.58172 48 0 44.4183 0 40V8Z" fill="white"/>
<path d="M13.5977 22.4102C13.5664 22.0951 13.4323 21.8503 13.1953 21.6758C12.9583 21.5013 12.6367 21.4141 12.2305 21.4141C11.9544 21.4141 11.7214 21.4531 11.5313 21.5313C11.3411 21.6068 11.1953 21.7122 11.0938 21.8477C10.9948 21.9831 10.9453 22.1367 10.9453 22.3086C10.9401 22.4518 10.9701 22.5768 11.0352 22.6836C11.1029 22.7904 11.1953 22.8828 11.3125 22.9609C11.4297 23.0365 11.5651 23.1029 11.7188 23.1602C11.8724 23.2148 12.0365 23.2617 12.2109 23.3008L12.9297 23.4727C13.2786 23.5508 13.599 23.6549 13.8906 23.7852C14.1823 23.9154 14.4349 24.0755 14.6484 24.2656C14.862 24.4557 15.0273 24.6797 15.1445 24.9375C15.2643 25.1953 15.3255 25.4909 15.3281 25.8242C15.3255 26.3138 15.2005 26.7383 14.9531 27.0977C14.7083 27.4544 14.3542 27.7318 13.8906 27.9297C13.4297 28.125 12.8737 28.2227 12.2227 28.2227C11.5768 28.2227 11.0143 28.1237 10.5352 27.9258C10.0586 27.7279 9.6862 27.4349 9.41797 27.0469C9.15234 26.6563 9.01302 26.1732 9 25.5977H10.6367C10.6549 25.8659 10.7318 26.0898 10.8672 26.2695C11.0052 26.4466 11.1888 26.5807 11.418 26.6719C11.6497 26.7604 11.9115 26.8047 12.2031 26.8047C12.4896 26.8047 12.7383 26.763 12.9492 26.6797C13.1628 26.5964 13.3281 26.4805 13.4453 26.332C13.5625 26.1836 13.6211 26.013 13.6211 25.8203C13.6211 25.6406 13.5677 25.4896 13.4609 25.3672C13.3568 25.2448 13.2031 25.1406 13 25.0547C12.7995 24.9688 12.5534 24.8906 12.2617 24.8203L11.3906 24.6016C10.7161 24.4375 10.1836 24.181 9.79297 23.832C9.40234 23.4831 9.20833 23.013 9.21094 22.4219C9.20833 21.9375 9.33724 21.5143 9.59766 21.1523C9.86068 20.7904 10.2214 20.5078 10.6797 20.3047C11.138 20.1016 11.6589 20 12.2422 20C12.8359 20 13.3542 20.1016 13.7969 20.3047C14.2422 20.5078 14.5885 20.7904 14.8359 21.1523C15.0833 21.5143 15.2109 21.9336 15.2188 22.4102H13.5977Z" fill="#3874B9"/>
<path d="M17.6621 28.1094H15.8496L18.6113 20.1094H20.791L23.5488 28.1094H21.7363L19.7324 21.9375H19.6699L17.6621 28.1094ZM17.5488 24.9648H21.8301V26.2852H17.5488V24.9648Z" fill="#3874B9"/>
<path d="M24.958 20.1094L26.8916 26.1875H26.9658L28.9033 20.1094H30.7783L28.0205 28.1094H25.8408L23.0791 20.1094H24.958Z" fill="#3874B9"/>
</svg>
