<svg width="40" height="48" viewBox="0 0 40 48" fill="none" xmlns="http://www.w3.org/2000/svg">
<path d="M0 8C0 3.58172 3.58172 0 8 0H20C31.0457 0 40 8.9543 40 20V40C40 44.4183 36.4183 48 32 48H8C3.58172 48 0 44.4183 0 40V8Z" fill="#3874B9"/>
<path d="M14.3068 22.3449C14.2775 22.0383 14.1519 21.8002 13.9299 21.6304C13.7079 21.4606 13.4066 21.3758 13.0261 21.3758C12.7675 21.3758 12.5492 21.4138 12.3711 21.4898C12.193 21.5633 12.0564 21.6659 11.9613 21.7976C11.8686 21.9294 11.8222 22.0789 11.8222 22.2461C11.8174 22.3854 11.8454 22.507 11.9064 22.6109C11.9698 22.7148 12.0564 22.8048 12.1662 22.8808C12.276 22.9542 12.4028 23.0188 12.5467 23.0746C12.6907 23.1278 12.8443 23.1734 13.0078 23.2114L13.6811 23.3786C14.0079 23.4546 14.308 23.556 14.5812 23.6827C14.8544 23.8093 15.091 23.9652 15.2911 24.1501C15.4911 24.3351 15.646 24.553 15.7558 24.8038C15.868 25.0546 15.9253 25.3422 15.9278 25.6665C15.9253 26.1428 15.8082 26.5558 15.5765 26.9055C15.3472 27.2526 15.0154 27.5224 14.5812 27.715C14.1494 27.905 13.6286 28 13.0188 28C12.4138 28 11.8869 27.9037 11.438 27.7112C10.9916 27.5186 10.6428 27.2336 10.3915 26.8561C10.1427 26.476 10.0122 26.006 10 25.4461H11.5332C11.5502 25.707 11.6222 25.9249 11.7491 26.0998C11.8783 26.2721 12.0503 26.4025 12.265 26.4912C12.4821 26.5774 12.7273 26.6204 13.0005 26.6204C13.2688 26.6204 13.5018 26.5799 13.6994 26.4988C13.8994 26.4177 14.0543 26.305 14.1641 26.1606C14.2738 26.0162 14.3287 25.8502 14.3287 25.6627C14.3287 25.4879 14.2787 25.3409 14.1787 25.2219C14.0811 25.1028 13.9372 25.0014 13.7469 24.9178C13.5591 24.8342 13.3286 24.7582 13.0554 24.6898L12.2394 24.477C11.6076 24.3173 11.1087 24.0678 10.7428 23.7283C10.3769 23.3888 10.1952 22.9314 10.1976 22.3563C10.1952 21.885 10.3159 21.4733 10.5598 21.1211C10.8062 20.769 11.1441 20.4941 11.5734 20.2964C12.0028 20.0988 12.4906 20 13.0371 20C13.5932 20 14.0787 20.0988 14.4934 20.2964C14.9105 20.4941 15.235 20.769 15.4667 21.1211C15.6985 21.4733 15.818 21.8812 15.8253 22.3449H14.3068Z" fill="white"/>
<path d="M17.8837 20.1064L19.6949 26.02H19.7644L21.5794 20.1064H23.3357L20.7524 27.8898H18.7106L16.1236 20.1064H17.8837Z" fill="white"/>
<path d="M28.3205 22.6223C28.2692 22.4374 28.1973 22.274 28.1046 22.1321C28.0119 21.9876 27.8985 21.866 27.7643 21.7672C27.6326 21.6659 27.4813 21.5886 27.3106 21.5354C27.1422 21.4822 26.9556 21.4556 26.7507 21.4556C26.3677 21.4556 26.0311 21.5544 25.7408 21.752C25.4529 21.9496 25.2285 22.2372 25.0675 22.6147C24.9065 22.9897 24.826 23.4483 24.826 23.9905C24.826 24.5327 24.9053 24.9938 25.0639 25.3739C25.2224 25.7539 25.4468 26.044 25.7371 26.2442C26.0274 26.4418 26.3702 26.5406 26.7653 26.5406C27.1239 26.5406 27.4301 26.4747 27.6838 26.343C27.9399 26.2087 28.1351 26.02 28.2692 25.7767C28.4058 25.5335 28.4742 25.2459 28.4742 24.914L28.7962 24.9634H26.8641V23.7245H30V24.705C30 25.3891 29.861 25.9769 29.5829 26.4684C29.3048 26.9574 28.9218 27.3349 28.4339 27.601C27.946 27.8644 27.3874 27.9962 26.758 27.9962C26.0555 27.9962 25.4383 27.8353 24.9065 27.5135C24.3747 27.1892 23.96 26.7294 23.6624 26.134C23.3673 25.536 23.2197 24.8266 23.2197 24.0057C23.2197 23.3748 23.3075 22.8124 23.4831 22.3183C23.6612 21.8217 23.91 21.4011 24.2296 21.0565C24.5491 20.712 24.9212 20.4497 25.3456 20.2698C25.7701 20.0899 26.2299 20 26.7251 20C27.1496 20 27.5447 20.0646 27.9106 20.1938C28.2766 20.3205 28.601 20.5004 28.884 20.7335C29.1694 20.9666 29.4023 21.244 29.5829 21.5658C29.7634 21.885 29.8792 22.2372 29.9305 22.6223H28.3205Z" fill="white"/>
</svg>
