<svg width="40" height="48" viewBox="0 0 40 48" fill="none" xmlns="http://www.w3.org/2000/svg">
<path d="M0 8C0 3.58172 3.58172 0 8 0H20C31.0457 0 40 8.9543 40 20V40C40 44.4183 36.4183 48 32 48H8C3.58172 48 0 44.4183 0 40V8Z" fill="white"/>
<path d="M12 21.3945V20H18.5703V21.3945H16.1211V28H14.4492V21.3945H12Z" fill="#3874B9"/>
<path d="M21.3438 20V28H19.6523V20H21.3438Z" fill="#3874B9"/>
<path d="M22.7354 28V20H28.0322V21.3945H24.4268V23.3008H27.6807V24.6953H24.4268V28H22.7354Z" fill="#3874B9"/>
</svg>
