<svg width="40" height="48" viewBox="0 0 40 48" fill="none" xmlns="http://www.w3.org/2000/svg">
<path d="M0 8C0 3.58172 3.58172 0 8 0H20C31.0457 0 40 8.9543 40 20V40C40 44.4183 36.4183 48 32 48H8C3.58172 48 0 44.4183 0 40V8Z" fill="#3874B9"/>
<path d="M10 21.3945V20H16.3203V21.3945H13.9643V28H12.356V21.3945H10Z" fill="white"/>
<path d="M18.4105 20L19.9624 22.7266H20.0225L21.5819 20H23.4194L21.0709 24L23.472 28H21.6007L20.0225 25.2695H19.9624L18.3842 28H16.5205L18.9291 24L16.5656 20H18.4105Z" fill="white"/>
<path d="M23.6797 21.3945V20H30V21.3945H27.644V28H26.0357V21.3945H23.6797Z" fill="white"/>
</svg>
