<svg width="40" height="48" viewBox="0 0 40 48" fill="none" xmlns="http://www.w3.org/2000/svg">
<path d="M0 8C0 3.58172 3.58172 0 8 0H20C31.0457 0 40 8.9543 40 20V40C40 44.4183 36.4183 48 32 48H8C3.58172 48 0 44.4183 0 40V8Z" fill="#014087"/>
<path d="M11.8789 20L13.8125 26.0781H13.8867L15.8242 20H17.6992L14.9414 28H12.7617L10 20H11.8789Z" fill="white"/>
<path d="M20.3535 20V28H18.6621V20H20.3535Z" fill="white"/>
<path d="M24.5811 28H21.7451V20H24.6045C25.4092 20 26.1019 20.1602 26.6826 20.4805C27.2633 20.7982 27.71 21.2552 28.0225 21.8516C28.3376 22.4479 28.4951 23.1615 28.4951 23.9922C28.4951 24.8255 28.3376 25.5417 28.0225 26.1406C27.71 26.7396 27.2607 27.1992 26.6748 27.5195C26.0915 27.8398 25.3936 28 24.5811 28ZM23.4365 26.5508H24.5107C25.0107 26.5508 25.4313 26.4622 25.7725 26.2852C26.1162 26.1055 26.374 25.8281 26.5459 25.4531C26.7204 25.0755 26.8076 24.5885 26.8076 23.9922C26.8076 23.401 26.7204 22.918 26.5459 22.543C26.374 22.168 26.1175 21.8919 25.7764 21.7148C25.4352 21.5378 25.0146 21.4492 24.5146 21.4492H23.4365V26.5508Z" fill="white"/>
</svg>
