<svg width="40" height="48" viewBox="0 0 40 48" fill="none" xmlns="http://www.w3.org/2000/svg">
<path d="M0 8C0 3.58172 3.58172 0 8 0H20C31.0457 0 40 8.9543 40 20V40C40 44.4183 36.4183 48 32 48H8C3.58172 48 0 44.4183 0 40V8Z" fill="white"/>
<path d="M8.11538 28L6 20H7.70747L8.93121 25.5586H8.99258L10.3427 20H11.8047L13.1511 25.5703H13.2161L14.4399 20H16.1473L14.032 28H12.5086L11.1007 22.7695H11.043L9.63875 28H8.11538Z" fill="#3874B9"/>
<path d="M16.9839 20H18.9116L20.9476 25.375H21.0342L23.0702 20H24.9978V28H23.4817V22.793H23.4203L21.5071 27.9609H20.4747L18.5614 22.7734H18.5001V28H16.9839V20Z" fill="#3874B9"/>
<path d="M27.6213 20L29.4082 26.0781H29.4768L31.2673 20H33L30.4514 28H28.4371L25.885 20H27.6213Z" fill="#3874B9"/>
</svg>
