<svg width="40" height="48" viewBox="0 0 40 48" fill="none" xmlns="http://www.w3.org/2000/svg">
<path d="M0 8C0 3.58172 3.58172 0 8 0H20C31.0457 0 40 8.9543 40 20V40C40 44.4183 36.4183 48 32 48H8C3.58172 48 0 44.4183 0 40V8Z" fill="white"/>
<path d="M11.9648 20.1094L13.5781 22.8359H13.6406L15.2617 20.1094H17.1719L14.7305 24.1094L17.2266 28.1094H15.2813L13.6406 25.3789H13.5781L11.9375 28.1094H10L12.5039 24.1094L10.0469 20.1094H11.9648Z" fill="#3874B9"/>
<path d="M18.2422 28.1094V20.1094H19.9336V26.7148H23.3633V28.1094H18.2422Z" fill="#3874B9"/>
<path d="M28.8232 22.4102C28.792 22.0951 28.6579 21.8503 28.4209 21.6758C28.1839 21.5013 27.8623 21.4141 27.4561 21.4141C27.18 21.4141 26.9469 21.4531 26.7568 21.5313C26.5667 21.6068 26.4209 21.7122 26.3193 21.8477C26.2204 21.9831 26.1709 22.1367 26.1709 22.3086C26.1657 22.4518 26.1956 22.5768 26.2607 22.6836C26.3285 22.7904 26.4209 22.8828 26.5381 22.9609C26.6553 23.0365 26.7907 23.1029 26.9443 23.1602C27.098 23.2148 27.262 23.2617 27.4365 23.3008L28.1553 23.4727C28.5042 23.5508 28.8245 23.6549 29.1162 23.7852C29.4079 23.9154 29.6605 24.0755 29.874 24.2656C30.0876 24.4557 30.2529 24.6797 30.3701 24.9375C30.4899 25.1953 30.5511 25.4909 30.5537 25.8242C30.5511 26.3138 30.4261 26.7383 30.1787 27.0977C29.9339 27.4544 29.5798 27.7318 29.1162 27.9297C28.6553 28.125 28.0993 28.2227 27.4482 28.2227C26.8024 28.2227 26.2399 28.1237 25.7607 27.9258C25.2842 27.7279 24.9118 27.4349 24.6436 27.0469C24.3779 26.6563 24.2386 26.1732 24.2256 25.5977H25.8623C25.8805 25.8659 25.9574 26.0898 26.0928 26.2695C26.2308 26.4466 26.4144 26.5807 26.6436 26.6719C26.8753 26.7604 27.137 26.8047 27.4287 26.8047C27.7152 26.8047 27.9639 26.763 28.1748 26.6797C28.3883 26.5964 28.5537 26.4805 28.6709 26.332C28.7881 26.1836 28.8467 26.013 28.8467 25.8203C28.8467 25.6406 28.7933 25.4896 28.6865 25.3672C28.5824 25.2448 28.4287 25.1406 28.2256 25.0547C28.0251 24.9688 27.779 24.8906 27.4873 24.8203L26.6162 24.6016C25.9417 24.4375 25.4092 24.181 25.0186 23.832C24.6279 23.4831 24.4339 23.013 24.4365 22.4219C24.4339 21.9375 24.5628 21.5143 24.8232 21.1523C25.0863 20.7904 25.4469 20.5078 25.9053 20.3047C26.3636 20.1016 26.8844 20 27.4678 20C28.0615 20 28.5798 20.1016 29.0225 20.3047C29.4678 20.5078 29.8141 20.7904 30.0615 21.1523C30.3089 21.5143 30.4365 21.9336 30.4443 22.4102H28.8232Z" fill="#3874B9"/>
</svg>
