<svg width="40" height="48" viewBox="0 0 40 48" fill="none" xmlns="http://www.w3.org/2000/svg">
<path d="M0 8C0 3.58172 3.58172 0 8 0H20C31.0457 0 40 8.9543 40 20V40C40 44.4183 36.4183 48 32 48H8C3.58172 48 0 44.4183 0 40V8Z" fill="#3874B9"/>
<path d="M7.96484 20.1094L9.57813 22.8359H9.64062L11.2617 20.1094H13.1719L10.7305 24.1094L13.2266 28.1094H11.2813L9.64062 25.3789H9.57813L7.9375 28.1094H6L8.50391 24.1094L6.04688 20.1094H7.96484Z" fill="white"/>
<path d="M14.2422 28.1094V20.1094H15.9336V26.7148H19.3633V28.1094H14.2422Z" fill="white"/>
<path d="M24.8232 22.4102C24.792 22.0951 24.6579 21.8503 24.4209 21.6758C24.1839 21.5013 23.8623 21.4141 23.4561 21.4141C23.18 21.4141 22.9469 21.4531 22.7568 21.5313C22.5667 21.6068 22.4209 21.7122 22.3193 21.8477C22.2204 21.9831 22.1709 22.1367 22.1709 22.3086C22.1657 22.4518 22.1956 22.5768 22.2607 22.6836C22.3285 22.7904 22.4209 22.8828 22.5381 22.9609C22.6553 23.0365 22.7907 23.1029 22.9443 23.1602C23.098 23.2148 23.262 23.2617 23.4365 23.3008L24.1553 23.4727C24.5042 23.5508 24.8245 23.6549 25.1162 23.7852C25.4079 23.9154 25.6605 24.0755 25.874 24.2656C26.0876 24.4557 26.2529 24.6797 26.3701 24.9375C26.4899 25.1953 26.5511 25.4909 26.5537 25.8242C26.5511 26.3138 26.4261 26.7383 26.1787 27.0977C25.9339 27.4544 25.5798 27.7318 25.1162 27.9297C24.6553 28.125 24.0993 28.2227 23.4482 28.2227C22.8024 28.2227 22.2399 28.1237 21.7607 27.9258C21.2842 27.7279 20.9118 27.4349 20.6436 27.0469C20.3779 26.6563 20.2386 26.1732 20.2256 25.5977H21.8623C21.8805 25.8659 21.9574 26.0898 22.0928 26.2695C22.2308 26.4466 22.4144 26.5807 22.6436 26.6719C22.8753 26.7604 23.137 26.8047 23.4287 26.8047C23.7152 26.8047 23.9639 26.763 24.1748 26.6797C24.3883 26.5964 24.5537 26.4805 24.6709 26.332C24.7881 26.1836 24.8467 26.013 24.8467 25.8203C24.8467 25.6406 24.7933 25.4896 24.6865 25.3672C24.5824 25.2448 24.4287 25.1406 24.2256 25.0547C24.0251 24.9688 23.779 24.8906 23.4873 24.8203L22.6162 24.6016C21.9417 24.4375 21.4092 24.181 21.0186 23.832C20.6279 23.4831 20.4339 23.013 20.4365 22.4219C20.4339 21.9375 20.5628 21.5143 20.8232 21.1523C21.0863 20.7904 21.4469 20.5078 21.9053 20.3047C22.3636 20.1016 22.8844 20 23.4678 20C24.0615 20 24.5798 20.1016 25.0225 20.3047C25.4678 20.5078 25.8141 20.7904 26.0615 21.1523C26.3089 21.5143 26.4365 21.9336 26.4443 22.4102H24.8232Z" fill="white"/>
<path d="M29.2773 20.1094L30.8906 22.8359H30.9531L32.5742 20.1094H34.4844L32.043 24.1094L34.5391 28.1094H32.5938L30.9531 25.3789H30.8906L29.25 28.1094H27.3125L29.8164 24.1094L27.3594 20.1094H29.2773Z" fill="white"/>
</svg>
