<svg width="40" height="48" viewBox="0 0 40 48" fill="none" xmlns="http://www.w3.org/2000/svg">
<path d="M0 8C0 3.58172 3.58172 0 8 0H20C31.0457 0 40 8.9543 40 20V40C40 44.4183 36.4183 48 32 48H8C3.58172 48 0 44.4183 0 40V8Z" fill="#3874B9"/>
<path d="M11.0085 28V26.9961L15.3538 21.3945H11V20H17.6668V21.0039L13.3172 26.6055H17.6753V28H11.0085Z" fill="white"/>
<path d="M20.929 20V28H19.088V20H20.929Z" fill="white"/>
<path d="M22.4437 28V20H25.8792C26.5396 20 27.1023 20.1159 27.5671 20.3477C28.032 20.5768 28.3863 20.8958 28.6301 21.3047C28.8767 21.7109 29 22.1797 29 22.7109C29 23.2422 28.8753 23.7109 28.6258 24.1172C28.3764 24.5234 28.015 24.8398 27.5416 25.0664C27.0711 25.293 26.5014 25.4062 25.8324 25.4062H23.6427V24.0508H25.5348C25.8891 24.0508 26.1811 23.9948 26.4107 23.8828C26.6431 23.7682 26.816 23.6107 26.9294 23.4102C27.0456 23.207 27.1037 22.974 27.1037 22.7109C27.1037 22.4453 27.0456 22.2135 26.9294 22.0156C26.816 21.8151 26.6431 21.6602 26.4107 21.5508C26.1782 21.4388 25.8834 21.3828 25.5263 21.3828H24.2848V28H22.4437Z" fill="white"/>
</svg>
