<svg xmlns="http://www.w3.org/2000/svg" width="142" height="142" viewBox="0 0 142 142">
  <g id="Group_2463" data-name="Group 2463" transform="translate(-146.469 -135.469)">
    <circle id="Ellipse_16" data-name="Ellipse 16" cx="71" cy="71" r="71" transform="translate(146.469 135.469)" fill="#014087"/>
    <path id="Icon_material-wifi-tethering" data-name="Icon material-wifi-tethering" d="M27.715,24.272a4.943,4.943,0,1,0,4.943,4.943A4.958,4.958,0,0,0,27.715,24.272Zm14.829,4.943A14.829,14.829,0,1,0,20.3,42.042l2.472-4.3a9.886,9.886,0,1,1,9.886,0l2.472,4.3A14.822,14.822,0,0,0,42.544,29.215ZM27.715,4.5A24.708,24.708,0,0,0,15.333,50.594L17.8,46.318a19.784,19.784,0,1,1,19.8,0l2.472,4.276A24.7,24.7,0,0,0,27.715,4.5Z" transform="translate(189.754 178.922)" fill="#fff" stroke="#014087" stroke-width="0.9"/>
  </g>
</svg>
