<svg xmlns="http://www.w3.org/2000/svg" width="355.31" height="355.4" viewBox="0 0 355.31 355.4">
  <g id="Group_2548" data-name="Group 2548" transform="translate(13461.311 -1127)">
    <path id="Path_85" data-name="Path 85" d="M355.71,178.4A177.655,177.655,0,1,1,178.052.74,177.654,177.654,0,0,1,355.71,178.4Z" transform="translate(-13461.711 1126.3)" fill="#e4eaf7"/>
    <path id="Path_75" data-name="Path 75" d="M355.7,178.4c0,98.1-79.5,177.7-177.6,177.7A177.7,177.7,0,1,1,178.1.7C276.2.7,355.7,80.3,355.7,178.4Z" transform="translate(-13461.711 1126.3)" fill="#e4eaf7"/>
    <rect id="Rectangle_3009" data-name="Rectangle 3009" width="184" height="123" rx="14" transform="translate(-13376 1235)" fill="#c6d0e2"/>
    <rect id="Rectangle_3010" data-name="Rectangle 3010" width="40" height="8" transform="translate(-13304 1366)" fill="#c6d0e2"/>
    <path id="Icon_ionic-md-settings" data-name="Icon ionic-md-settings" d="M54.766,35.5a18.266,18.266,0,0,0,.149-2.921c0-1.023-.149-1.9-.149-2.921l6.272-4.819a1.341,1.341,0,0,0,.3-1.9L55.362,12.868a1.455,1.455,0,0,0-1.793-.585L46.1,15.2a21.74,21.74,0,0,0-5.078-2.921l-1.046-7.74a1.6,1.6,0,0,0-1.494-1.168H26.534A1.6,1.6,0,0,0,25.04,4.543l-1.195,7.74A25.3,25.3,0,0,0,18.766,15.2L11.3,12.283a1.4,1.4,0,0,0-1.793.585L3.53,22.945a1.764,1.764,0,0,0,.3,1.9l6.423,4.819c0,1.023-.149,1.9-.149,2.921s.149,1.9.149,2.921L3.979,40.323a1.341,1.341,0,0,0-.3,1.9L9.655,52.3a1.455,1.455,0,0,0,1.793.585l7.469-2.921a21.738,21.738,0,0,0,5.078,2.921l1.195,7.74a1.448,1.448,0,0,0,1.494,1.168h11.95a1.6,1.6,0,0,0,1.494-1.168l1.2-7.74A25.28,25.28,0,0,0,46.4,49.962l7.469,2.921a1.4,1.4,0,0,0,1.793-.585l5.975-10.078a1.761,1.761,0,0,0-.3-1.9Zm-22.257,7.3a10.225,10.225,0,1,1,0-20.446,10.225,10.225,0,1,1,0,20.446Z" transform="translate(-13316.584 1263.917)" fill="#e4eaf7"/>
  </g>
</svg>
