<svg xmlns="http://www.w3.org/2000/svg" width="24.161" height="22.435" viewBox="0 0 24.161 22.435">
  <g id="brodcast" transform="translate(0.25 0.25)">
    <path id="Subtraction_31" data-name="Subtraction 31" d="M18.153,21.832h0l-.939-1.7A9.9,9.9,0,1,0,6.42,20.112L5.491,21.82a11.83,11.83,0,1,1,12.663.011Zm-2.3-4.155h0l-.943-1.707a5.161,5.161,0,1,0-8.246-4.137,5.129,5.129,0,0,0,2.026,4.1l-.934,1.718a7.1,7.1,0,1,1,8.1.03Z" transform="translate(0 0)" fill="#a9aec1" stroke="#a9aec1" stroke-width="0.5"/>
    <circle id="Ellipse_422" data-name="Ellipse 422" cx="2.366" cy="2.366" r="2.366" transform="translate(9.464 9.465)" fill="#a9aec1"/>
  </g>
</svg>
