<svg xmlns="http://www.w3.org/2000/svg" width="161.862" height="134" viewBox="0 0 161.862 134">
  <g id="Empty_message" transform="translate(7139.5 5839)">
    <circle id="Ellipse_445" data-name="Ellipse 445" cx="67" cy="67" r="67" transform="translate(-7138 -5839)" fill="#e6f2ff"/>
    <path id="Union_21" data-name="Union 21" d="M7657.381,6228H7649a9,9,0,0,1-9-9v-31a9,9,0,0,1,9-9h48a9,9,0,0,1,9,9v31a9,9,0,0,1-9,9h-27.708c-2.451,1.95-11.91,8.664-11.91,8.664Z" transform="translate(-14756 -11986)" fill="#b1cbe8" stroke="#599fef" stroke-linejoin="round" stroke-width="2"/>
    <path id="Union_22" data-name="Union 22" d="M9,57.664a9,9,0,0,1-9-9v-31a9,9,0,0,1,9-9H17.38V0s9.456,6.713,11.909,8.664H57a9,9,0,0,1,9,9v31a9,9,0,0,1-9,9Z" transform="translate(-6997.999 -5720.505) rotate(180)" fill="#fff" stroke="#599fef" stroke-width="2"/>
    <g id="Group_2520" data-name="Group 2520">
      <path id="Path_3558" data-name="Path 3558" d="M-7478.541-5846.168h-14.06a2,2,0,0,1-2-2,2,2,0,0,1,2-2h14.06a2,2,0,0,1,2,2A2,2,0,0,1-7478.541-5846.168Z" transform="translate(355.601 47)" fill="#b1cbe8" stroke="#599fef" stroke-linecap="round" stroke-width="1"/>
      <path id="Path_3559" data-name="Path 3559" d="M-7468.985-5856.749a2,2,0,0,1-2-2v-14.063a2,2,0,0,1,2-2,2,2,0,0,1,2,2v14.063A2,2,0,0,1-7468.985-5856.749Z" transform="translate(355.601 47)" fill="#b1cbe8" stroke="#599fef" stroke-linecap="round" stroke-width="1"/>
      <path id="Path_3560" data-name="Path 3560" d="M-7474.491-5852.715a1.992,1.992,0,0,1-1.44-.612l-12.271-12.732a2,2,0,0,1,.052-2.828,2,2,0,0,1,2.828.052l12.271,12.732a2,2,0,0,1-.052,2.828A1.993,1.993,0,0,1-7474.491-5852.715Z" transform="translate(354.601 47)" fill="#b1cbe8" stroke="#599fef" stroke-linecap="round" stroke-width="1"/>
    </g>
    <g id="Group_2521" data-name="Group 2521" transform="translate(-7000 -5794.844)">
      <path id="Path_3558-2" data-name="Path 3558" d="M-7493.017-5847h11.13a1.584,1.584,0,0,0,1.583-1.584,1.583,1.583,0,0,0-1.583-1.583h-11.13a1.583,1.583,0,0,0-1.583,1.583A1.584,1.584,0,0,0-7493.017-5847Z" transform="translate(7502.166 5869.678)" fill="#b1cbe8" stroke="#599fef" stroke-linecap="round" stroke-width="1"/>
      <path id="Path_3559-2" data-name="Path 3559" d="M-7469.4-5860.512a1.583,1.583,0,0,0,1.583-1.583v-11.133a1.584,1.584,0,0,0-1.583-1.583,1.584,1.584,0,0,0-1.583,1.583v11.133A1.583,1.583,0,0,0-7469.4-5860.512Z" transform="translate(7470.985 5874.812)" fill="#b1cbe8" stroke="#599fef" stroke-linecap="round" stroke-width="1"/>
      <path id="Path_3560-2" data-name="Path 3560" d="M-7487.179-5856.2a1.579,1.579,0,0,0,1.14-.485l9.714-10.08a1.582,1.582,0,0,0-.042-2.238,1.582,1.582,0,0,0-2.238.041l-9.715,10.08a1.583,1.583,0,0,0,.042,2.239A1.579,1.579,0,0,0-7487.179-5856.2Z" transform="translate(7493.913 5873.694)" fill="#b1cbe8" stroke="#599fef" stroke-linecap="round" stroke-width="1"/>
    </g>
    <path id="Path_3559-3" data-name="Path 3559" d="M-6.594-5.187h2.375l1.672,2.18.789.969L.906,1.438H-1.562L-3.344-.883l-.609-.844ZM1.422-8A9.593,9.593,0,0,1,.484-3.6,6.858,6.858,0,0,1-2.082-.77a6.989,6.989,0,0,1-3.7.988A7,7,0,0,1-9.488-.77,6.853,6.853,0,0,1-12.055-3.6,9.6,9.6,0,0,1-12.992-8a9.593,9.593,0,0,1,.938-4.4A6.858,6.858,0,0,1-9.488-15.23a7,7,0,0,1,3.707-.988,6.989,6.989,0,0,1,3.7.988A6.858,6.858,0,0,1,.484-12.4,9.593,9.593,0,0,1,1.422-8ZM-.969-8A7.721,7.721,0,0,0-1.6-11.293a4.683,4.683,0,0,0-1.719-2.031,4.5,4.5,0,0,0-2.465-.691,4.5,4.5,0,0,0-2.469.691,4.693,4.693,0,0,0-1.715,2.031A7.721,7.721,0,0,0-10.594-8a7.721,7.721,0,0,0,.629,3.293A4.693,4.693,0,0,0-8.25-2.676a4.5,4.5,0,0,0,2.469.691,4.5,4.5,0,0,0,2.465-.691A4.683,4.683,0,0,0-1.6-4.707,7.721,7.721,0,0,0-.969-8ZM6.8-4.6V-4.75A8.055,8.055,0,0,1,7.09-7.062a3.5,3.5,0,0,1,.793-1.391,6.111,6.111,0,0,1,1.242-.969,5.1,5.1,0,0,0,.844-.664,2.814,2.814,0,0,0,.594-.844,2.5,2.5,0,0,0,.219-1.055,2.168,2.168,0,0,0-.328-1.2,2.222,2.222,0,0,0-.871-.785,2.615,2.615,0,0,0-1.207-.277A2.731,2.731,0,0,0,7.227-14a2.184,2.184,0,0,0-.906.777,2.683,2.683,0,0,0-.414,1.355H3.531a4.477,4.477,0,0,1,.711-2.379A4.161,4.161,0,0,1,5.98-15.719a5.64,5.64,0,0,1,2.395-.5,5.592,5.592,0,0,1,2.516.535,4.045,4.045,0,0,1,1.676,1.492,4.123,4.123,0,0,1,.6,2.23,4.293,4.293,0,0,1-.273,1.574,3.94,3.94,0,0,1-.777,1.246,5.415,5.415,0,0,1-1.207.969,5.171,5.171,0,0,0-1.074.859,2.71,2.71,0,0,0-.6,1.055,5.525,5.525,0,0,0-.2,1.508V-4.6ZM7.977.148a1.51,1.51,0,0,1-1.1-.457,1.5,1.5,0,0,1-.461-1.105,1.491,1.491,0,0,1,.461-1.1,1.51,1.51,0,0,1,1.1-.457,1.514,1.514,0,0,1,1.1.457,1.484,1.484,0,0,1,.465,1.1,1.489,1.489,0,0,1-.215.785,1.638,1.638,0,0,1-.566.566A1.489,1.489,0,0,1,7.977.148Z" transform="translate(-7084 -5775)" fill="#fff"/>
    <path id="Path_3558-3" data-name="Path 3558" d="M-7.82,0h-2.562l5.758-16h2.789L3.922,0H1.359L-3.164-13.094h-.125Zm.43-6.266H.922v2.031H-7.391ZM8.984-16l-.2,11.4H6.617L6.414-16ZM7.7.148A1.519,1.519,0,0,1,6.594-.309a1.473,1.473,0,0,1-.453-1.105,1.464,1.464,0,0,1,.453-1.1A1.519,1.519,0,0,1,7.7-2.969,1.5,1.5,0,0,1,8.8-2.512a1.518,1.518,0,0,1,.469,1.1,1.545,1.545,0,0,1-.223.785,1.638,1.638,0,0,1-.566.566A1.475,1.475,0,0,1,7.7.148Z" transform="translate(-7031 -5745)" fill="#b1cbe8"/>
  </g>
</svg>
