<svg xmlns="http://www.w3.org/2000/svg" width="20.335" height="19.318" viewBox="0 0 20.335 19.318">
  <g id="invite" transform="translate(-2 -2.5)">
    <g id="Add-User" transform="translate(2 2.5)">
      <path id="Path_3549" data-name="Path 3549" d="M7.626,12.725c4.135,0,7.626.68,7.626,3.308s-3.513,3.285-7.626,3.285C3.491,19.318,0,18.637,0,16.01S3.512,12.725,7.626,12.725Zm9.658-7.641a.922.922,0,0,1,.914.927h0v1.2h1.223a.927.927,0,0,1,0,1.854H18.2v1.2a.914.914,0,1,1-1.828,0h0V9.06H15.148a.927.927,0,0,1,0-1.854H16.37v-1.2A.922.922,0,0,1,17.284,5.084ZM7.626,0a5.061,5.061,0,0,1,5.046,5.111,5.046,5.046,0,1,1-10.091,0A5.061,5.061,0,0,1,7.626,0Z" transform="translate(0 0)" fill="#a9aec1"/>
    </g>
  </g>
</svg>
