<svg xmlns="http://www.w3.org/2000/svg" width="26.86" height="26.619" viewBox="0 0 26.86 26.619">
  <g id="image" transform="translate(1 1)">
    <g id="Image_2" data-name="Image 2" transform="translate(0 0)">
      <path id="Stroke_1" data-name="Stroke 1" d="M2.75,15.06c0,9.231,3.078,12.31,12.31,12.31s12.31-3.078,12.31-12.31S24.291,2.75,15.06,2.75,2.75,5.828,2.75,15.06Z" transform="translate(-2.75 -2.75)" fill="#989bba" stroke="#989bba" stroke-linecap="round" stroke-linejoin="round" stroke-width="2" fill-rule="evenodd"/>
      <path id="Stroke_3" data-name="Stroke 3" d="M11.764,9.367A2.343,2.343,0,1,1,9.42,7.023,2.343,2.343,0,0,1,11.764,9.367Z" transform="translate(-1.319 -1.337)" fill="#989bba" stroke="#fff" stroke-linecap="round" stroke-linejoin="round" stroke-width="2" fill-rule="evenodd"/>
      <path id="Stroke_5" data-name="Stroke 5" d="M26.629,15.572c-1.172-1.206-2.831-3.642-5.877-3.642S17.639,17.3,14.531,17.3s-4.362-1.824-6.389-.872S4.466,21.17,4.466,21.17" transform="translate(-2.182 0.286)" fill="none" stroke="#fff" stroke-linecap="round" stroke-linejoin="round" stroke-width="2"/>
    </g>
  </g>
</svg>
