<svg xmlns="http://www.w3.org/2000/svg" width="24.417" height="21.365" viewBox="0 0 24.417 21.365">
  <path id="audio" d="M12.209,32A12.2,12.2,0,0,0,0,44.209V46.5a1.526,1.526,0,0,0,.844,1.365l.686.343a5.341,5.341,0,0,0,5.338,5.159H8.012a1.145,1.145,0,0,0,1.145-1.145V43.827a1.145,1.145,0,0,0-1.145-1.145H6.867a5.325,5.325,0,0,0-3.815,1.6v-.078a9.157,9.157,0,0,1,18.313,0v.078a5.325,5.325,0,0,0-3.815-1.6H16.405a1.145,1.145,0,0,0-1.145,1.145v8.393a1.145,1.145,0,0,0,1.145,1.145H17.55a5.341,5.341,0,0,0,5.338-5.159l.686-.343a1.526,1.526,0,0,0,.844-1.365V44.209A12.2,12.2,0,0,0,12.209,32Z" transform="translate(0 -32)" fill="#989bba"/>
</svg>
