<svg xmlns="http://www.w3.org/2000/svg" width="45.796" height="41.999" viewBox="0 0 45.796 41.999">
  <g id="Group_2404" data-name="Group 2404" transform="translate(-38.672 -107.033)">
    <ellipse id="Ellipse_440" data-name="Ellipse 440" cx="22.897" cy="20.816" rx="22.897" ry="20.816" transform="translate(38.674 107.216)" fill="#fff"/>
    <g id="Group_2403" data-name="Group 2403" transform="translate(38.672 107.033)">
      <path id="Path_3532" data-name="Path 3532" d="M-2462.854-4193.066c.1.061,7.371,4.775,7.5,4.756s5.584,1.253,5.584,1.253h4.016l3.6-.712s4.12-1.054,4.235-1.1,3.779-2.17,3.921-2.241,2.361-2.444,2.361-2.444.418-1.348.235-1.436-2.13-.528-2.13-.528-1.2,1.021-1.352,1.165-4.677,3.08-4.778,3.128-4.353,1.354-4.353,1.354l-5.578-.208-4.549-.888-4.082-2.288a12.736,12.736,0,0,0-.744-1.343c-.1-.052-1.506-.531-1.506-.531a11.351,11.351,0,0,0-1.3,0A15.892,15.892,0,0,0-2462.854-4193.066Z" transform="translate(2470.292 4228.468)" fill="#fff"/>
      <path id="Path_3533" data-name="Path 3533" d="M-2454.295-4207.816a31.868,31.868,0,0,0-.237,3.384c.115.079,4.043,3.413,4.158,3.5s5.971,2.365,6.2,2.525a23.123,23.123,0,0,0,4.426,1.092c.825,0,3.284-.037,3.427-.363s1.067-3,.747-3.255-3.49-1.327-3.97-1.56-4.956-1.944-4.956-1.944l-3.548-2.031-3.106-4.919-.557-3.128-.371-1.425s-.465-.356-.649-.339a10.863,10.863,0,0,0-1.568.617,9.536,9.536,0,0,0-.467,3.119C-2454.621-4212.039-2454.295-4207.816-2454.295-4207.816Z" transform="translate(2470.621 4227.62)" fill="#fff"/>
      <path id="Path_3534" data-name="Path 3534" d="M-2460.98-4221.3h0l-1.146,1.473s1.767,1.651,1.846,1.625a7.146,7.146,0,0,0,.985-.283c.086-.078,1.641-1.855,1.71-1.89s2.548-1.622,2.693-1.684,2.244-1.031,2.244-1.031l3.161-.574h3.74l3.538.776,2.931,1.162,2.384,1.366s1.827,1.121,1.9,1.121a5.571,5.571,0,0,0,1.66-.82,9.553,9.553,0,0,0,.279-1.965c-.062-.093-1.773-1.186-1.855-1.252s-3.621-1.744-3.621-1.744-4.155-1.169-4.244-1.177-3.941-.433-3.941-.433-3.623.105-3.683.105-3.06.573-3.06.573l-3.114,1.131-2.108.9-1.476,1.655" transform="translate(2470.322 4227.198)" fill="#fff"/>
      <g id="Group_2214" data-name="Group 2214" transform="translate(0 0)">
        <path id="Union_10" data-name="Union 10" d="M18.471,42a2.038,2.038,0,0,1-.36-.041h-.165c-.4-.031-.8-.062-1.192-.1-.216-.02-.432-.051-.648-.082q-.442-.072-.884-.154c-.05-.01-.1-.04-.142-.051h0c-.175-.031-.339-.052-.5-.082q-.308-.052-.617-.123c-.133-.031-.277-.072-.411-.113-.113-.031-.216-.062-.318-.093a11.207,11.207,0,0,1-1.275-.37c-.288-.1-.576-.185-.863-.288s-.569-.213-.843-.329c-.35-.144-.689-.288-1.028-.442q-.6-.277-1.172-.586c-.411-.216-.823-.452-1.223-.689q-.339-.2-.658-.421c-.349-.236-.7-.473-1.028-.73a20.33,20.33,0,0,1-1.85-1.531q-.463-.442-.915-.884c-.175-.175-.349-.339-.5-.524-.226-.257-.442-.524-.658-.791q-.4-.5-.791-1.018C.308,32.409.206,32.244.1,32.09H6.774c.216.236.432.473.658.7q.308.339.648.648c.329.308.658.606,1,.894.267.216.545.411.822.606s.545.38.822.555c.339.205.678.4,1.028.586a15.92,15.92,0,0,0,1.758.8,13.488,13.488,0,0,0,2.076.648c.37.082.73.175,1.11.236.36.062.72.1,1.079.144.236.031.483.031.72.062a8.731,8.731,0,0,0,1.367.052c.226,0,.452-.031.678-.052s.452-.02.668-.041a12.839,12.839,0,0,0,1.655-.236,20.16,20.16,0,0,0,2.22-.6,17.11,17.11,0,0,0,1.737-.72,16.291,16.291,0,0,0,1.984-1.11c.267-.185.535-.38.8-.565.144-.1.288-.206.432-.319q.257-.216.5-.442c.411-.39.822-.771,1.223-1.172.226-.226.432-.473.648-.709a.92.92,0,0,0,.165.031h6.352c-.236.308-.463.627-.7.946-.185.236-.36.473-.555.7-.257.3-.514.606-.791.894a16.6,16.6,0,0,1-1.5,1.449c-.247.2-.473.421-.72.617-.349.278-.7.545-1.059.8s-.709.5-1.079.74c-.329.216-.668.4-1,.6-.278.154-.545.3-.823.442q-.575.288-1.161.565c-.277.123-.555.236-.833.35-.421.165-.853.329-1.285.483-.473.154-.946.3-1.429.432-.38.113-.771.2-1.162.288q-.421.1-.843.2c-.134.02-.267.031-.391.062a7.861,7.861,0,0,1-1.1.165,13.2,13.2,0,0,1-1.418.133c-.288,0-.586.01-.874.021h-.649a.61.61,0,0,1-.132.031Zm-.606-.082H17.9q.38.01.771.031-.39-.02-.771-.031h-.031l-.032,0ZM16.8,41.8Zm3.382-2.343v.1q.031.6.052,1.192c.01.1.02.123.123.113a.315.315,0,0,0,.113-.031c-.01-.236-.021-.473-.041-.709-.01-.206-.031-.411-.052-.617-.01-.247-.041-.257.236-.267q.144,0,.277-.01A.112.112,0,0,0,21,39.141c.01-.031-.02-.072-.051-.1a.245.245,0,0,0-.093-.021q-.144.01-.288.01l-.946.062c-.082.01-.134.052-.113.123s.062.072.123.072a3.027,3.027,0,0,0,.36.021c.033,0,.06,0,.082,0C20.161,39.3,20.169,39.329,20.177,39.46Zm-4.194-.442q-.047.293-.093.586c-.02.154-.031.308-.052.473h.01v.041a.551.551,0,0,0,.421.586,2.063,2.063,0,0,0,.35.051.585.585,0,0,0,.658-.493c.021-.133.021-.277.052-.411a4.751,4.751,0,0,0,.062-.658V39.1c0-.052-.041-.072-.082-.092a.085.085,0,0,0-.1.062,1.569,1.569,0,0,0-.041.236c-.01.082-.01.154-.02.236-.021.185-.041.38-.052.565a.451.451,0,0,1-.6.421c-.041-.01-.082-.01-.123-.02a.413.413,0,0,1-.318-.442c.031-.205.051-.411.082-.617.02-.134.051-.278.072-.411s-.031-.185-.093-.2h-.012C16.049,38.843,16,38.912,15.984,39.018Zm7.339-.308c-.134.041-.144.072-.072.205.165.01.175.01.2.123q.093.535.185,1.069c.031.144.031.144-.113.206a.1.1,0,0,0-.072.123c.021.062.072.062.113.062l.329-.031a.866.866,0,0,0,.175-.051c.062-.01.092-.051.072-.123a.1.1,0,0,0-.123-.082.356.356,0,0,1-.1.01c-.041-.133-.072-.267-.1-.39-.031-.154-.052-.308-.082-.463l-.041-.226c-.02-.082-.041-.161-.062-.236.2-.092.2-.092.164-.267A1.4,1.4,0,0,0,23.323,38.71Zm-10.474-.493q-.113.329-.216.647-.072.206-.134.4c-.051.154-.113.3-.154.452-.031.082-.01.123.072.144l.226.082q.247.062.493.133c.093.031.185.062.288.093.02-.021.062-.031.072-.052a.174.174,0,0,0-.01-.123c0-.02-.041-.041-.062-.051q-.247-.072-.483-.144a1.585,1.585,0,0,1-.236-.072c-.072-.01-.1-.051-.072-.123q.072-.216.133-.432.144-.432.278-.874c.031-.082.01-.154-.052-.175a.111.111,0,0,0-.036-.006C12.911,38.118,12.873,38.151,12.849,38.217Zm14.061-.555a2.277,2.277,0,0,0-.247.072.7.7,0,0,0-.3.216.716.716,0,0,0-.185.524,1.592,1.592,0,0,0,.1.535.946.946,0,0,0,.442.473.633.633,0,0,0,.473.072,1.865,1.865,0,0,0,.411-.185.759.759,0,0,0,.329-.925,1.247,1.247,0,0,0-.226-.452.75.75,0,0,0-.621-.348A.891.891,0,0,0,26.91,37.661Zm-17.587-.9a1.224,1.224,0,0,0-.483.514.855.855,0,0,0-.072.688,1.013,1.013,0,0,0,.853.606.785.785,0,0,0,.668-.308,1.3,1.3,0,0,0,.278-.617.758.758,0,0,0-.3-.761,1.568,1.568,0,0,0-.318-.175.557.557,0,0,0-.244-.056A.868.868,0,0,0,9.323,36.757Zm20.475-.38c-.031.021-.072.031-.1.051-.082.041-.1.093-.051.175s.092.175.133.257c.082.154.154.318.236.473.051.1.133.185.185.278.072.123.133.247.2.38a.116.116,0,0,0,.175.051c.072-.031.082-.082.041-.164l-.206-.35q-.226-.4-.462-.8a.642.642,0,0,1-.021-.092.234.234,0,0,1,.093.01q.236.123.462.247c.3.164.606.318.894.493a.218.218,0,0,0,.288-.021c.093-.072.113-.1.052-.2l-.278-.4q-.288-.421-.576-.853c-.01-.021-.031-.062-.062-.072a.094.094,0,0,0-.1-.01.1.1,0,0,0-.052.093.218.218,0,0,0,.041.1l.514.781a2.582,2.582,0,0,1,.134.226.067.067,0,0,1-.031.031c-.021-.01-.052-.01-.072-.02q-.617-.339-1.243-.678a.212.212,0,0,0-.093-.026A.142.142,0,0,0,29.8,36.376ZM5.643,35.04c-.123.1-.123.133-.051.278a1.938,1.938,0,0,0,.39.555.7.7,0,0,0,.689.226.435.435,0,0,0,.308-.545,1.033,1.033,0,0,0-.123-.236c-.082-.144-.164-.278-.257-.411a.349.349,0,0,1-.041-.267.2.2,0,0,1,.154-.165.406.406,0,0,1,.267.051.824.824,0,0,1,.3.329c.062.123.113.247.165.37.175-.052.216-.113.154-.267-.028-.062-.058-.123-.093-.185a1.179,1.179,0,0,0-.473-.452.449.449,0,0,0-.514.021.443.443,0,0,0-.205.39.814.814,0,0,0,.144.38c.092.154.2.3.288.452a.218.218,0,0,1-.041.267.211.211,0,0,1-.257.082.62.62,0,0,1-.36-.236,4.174,4.174,0,0,1-.216-.36c-.051-.1-.092-.216-.144-.339C5.695,35.009,5.664,35.02,5.643,35.04Zm28.637-.6a.247.247,0,0,1,.062.329.2.2,0,0,1-.052.1,1.047,1.047,0,0,1-.74.5l-.062.031c.052.185.175.247.329.165a1.652,1.652,0,0,0,.6-.5.764.764,0,0,0,.154-.35.518.518,0,0,0-.257-.545.3.3,0,0,0-.206-.041,1.117,1.117,0,0,0-.37.175,5.09,5.09,0,0,1-.493.319.24.24,0,0,1-.35-.226.545.545,0,0,1,.236-.391.972.972,0,0,1,.514-.277c-.062-.185-.175-.247-.308-.154-.113.072-.216.164-.329.247a.892.892,0,0,0-.308.524.312.312,0,0,0,.01.216.472.472,0,0,0,.6.3.575.575,0,0,0,.175-.093c.164-.1.318-.216.473-.318a.373.373,0,0,1,.186-.056A.234.234,0,0,1,34.28,34.444ZM17.947,41.958h0Zm8.706-2.786a.939.939,0,0,1-.267-.576.641.641,0,0,1,.37-.678,1.12,1.12,0,0,1,.452-.051.5.5,0,0,1,.319.226.773.773,0,0,1,.216.565.579.579,0,0,1-.452.637.874.874,0,0,1-.236.051h-.028A.53.53,0,0,1,26.653,39.172ZM9.045,38.021a.543.543,0,0,1-.072-.288.88.88,0,0,1,.463-.8.65.65,0,0,1,.822.236.585.585,0,0,1,.072.565,1.141,1.141,0,0,1-.185.35.592.592,0,0,1-.49.275A.79.79,0,0,1,9.045,38.021ZM27.711,31.8c-.421-.052-.853-.082-1.275-.134-.318-.041-.648-.1-.966-.154s-.658-.113-.987-.175a20.99,20.99,0,0,1-2.364-.617,26.444,26.444,0,0,1-2.58-.956,23.765,23.765,0,0,1-3.125-1.634.363.363,0,0,0-.288-.072c-.082-.052-.175-.1-.257-.154q-.236-.164-.473-.339c-.267-.185-.535-.37-.791-.576-.319-.257-.627-.524-.936-.781-.267-.236-.534-.473-.8-.72-.339-.329-.668-.678-.976-1.038-.247-.288-.493-.555-.72-.843q-.37-.483-.7-.987c-.277-.421-.545-.843-.781-1.275-.257-.473-.5-.945-.72-1.439A12.268,12.268,0,0,1,8.4,18.358a15.37,15.37,0,0,1-.38-1.511c-.01-.052-.031-.1-.041-.165-.041.01-.072.021-.1.031V14.74q-.011-1.573-.021-3.145c0-.113,0-.236-.01-.35a.388.388,0,0,1,.144-.339.709.709,0,0,1,.555-.236c.822.01,1.645-.01,2.467-.01H12.6q1.285,0,2.57-.01a.343.343,0,0,1,.267.092,1.753,1.753,0,0,1,.39.473.86.86,0,0,1,.082.421c.01.154,0,.318,0,.473q0,.175.01.35a11.792,11.792,0,0,0,.164,1.593,15.16,15.16,0,0,0,.411,1.665,12.542,12.542,0,0,0,1.891,3.659,10.528,10.528,0,0,0,1.059,1.213,10.918,10.918,0,0,0,2.395,1.819c.319.175.648.329.976.493a1.043,1.043,0,0,0,.154.072c.175.062.236.041.339-.092.01,0,.021.02.031.02a2.364,2.364,0,0,1,.463.123q.319.1.648.185a6.26,6.26,0,0,0,.627.165c.226.041.452.062.678.1.247.031.493.072.74.1.133.021.267.021.39.041.267.031.535.082.8.1.236.021.473.031.7.031.192,0,.382,0,.572,0,.319,0,.637,0,.96.018a3.273,3.273,0,0,1,.781.144,3.407,3.407,0,0,1,.442.2c.041.02.062.01.072-.031A6.151,6.151,0,0,1,32.9,26.036a3.845,3.845,0,0,1,.391,1.264,3.048,3.048,0,0,1-.247,1.573,4.7,4.7,0,0,1-.874,1.367c-.134.154-.288.308-.432.463a.989.989,0,0,1-.339.247.4.4,0,0,0-.051.021,3.144,3.144,0,0,1-1.193.5,9.538,9.538,0,0,1-1.429.319,4.753,4.753,0,0,1-.572.036A3.691,3.691,0,0,1,27.711,31.8Zm-.966-4.738c0,.154.01.318,0,.473q0,.5-.01,1.007c0,.123.021.154.144.144a2.151,2.151,0,0,0,.257-.02c.154,0,.318,0,.473-.01a.84.84,0,0,0,.5-.226.859.859,0,0,0,.247-.637.931.931,0,0,0-.257-.606,1.3,1.3,0,0,0-.9-.277c-.01,0-.031.01-.041.01a.434.434,0,0,1-.257.021.27.27,0,0,0-.052-.006C26.782,26.935,26.754,26.973,26.745,27.064Zm-1.3.154a.078.078,0,0,0,.041.01c.165,0,.185.031.185.2a2.5,2.5,0,0,1-.02.278c-.01.144-.031.288-.052.421s-.031.134-.164.154c-.113.01-.134.031-.144.144a.764.764,0,0,0,0,.154,1.1,1.1,0,0,0,.4.052c.165,0,.329.031.493.041.144.01.144,0,.144-.154a.306.306,0,0,1,.01-.072.1.1,0,0,0-.072-.113l-.1-.02c-.082-.01-.123-.052-.113-.134s.021-.2.031-.288v-.463c0-.123.031-.144.154-.144s.154-.01.144-.165c0-.062-.01-.113-.01-.185-.319-.031-.617-.052-.915-.072A.486.486,0,0,0,25.45,27.218Zm4.214-.627-.945.206c-.1.031-.113.051-.1.144q.093.709.2,1.418a.581.581,0,0,0,.031.1c.021.062.062.082.134.062l.894-.185c.113-.021.216-.052.339-.072-.01-.072-.021-.144-.031-.206-.021-.1-.052-.123-.154-.113s-.2.062-.3.082c-.154.031-.308.062-.473.1a1.7,1.7,0,0,1-.072-.288c-.01-.031.021-.072.052-.093s.062-.02.092-.031c.165-.041.339-.072.5-.113.123-.031.144-.062.1-.185a1.675,1.675,0,0,1-.062-.175c-.2.041-.37.082-.555.123-.206.062-.247.031-.236-.185a.093.093,0,0,1,.082-.1,2.472,2.472,0,0,1,.463-.1c.216-.031.267-.062.2-.3-.024-.071-.041-.1-.1-.1A.31.31,0,0,0,29.664,26.591Zm-5.756.791a4.258,4.258,0,0,1,.082.812c0,.247,0,.247.236.277l.308.041c.226-.555.452-1.1.688-1.665-.092-.02-.154-.031-.216-.041-.164-.041-.216-.02-.277.144-.093.226-.175.462-.257.688a1.131,1.131,0,0,1-.092.2.075.075,0,0,1-.031-.01c-.052-.113-.01-.236-.041-.36a2.408,2.408,0,0,1-.041-.391c0-.123-.01-.247-.01-.37-.123-.031-.216-.051-.318-.072s-.123-.01-.175.093q-.185.39-.38.771a.145.145,0,0,1-.123.1v-.339c0-.185.01-.38.02-.565a.711.711,0,0,0-.02-.144.188.188,0,0,0-.052-.072.758.758,0,0,0-.35-.072c0,.123-.02.247-.02.37.01.226.02.463.02.689a1.046,1.046,0,0,0-.01.175,1.11,1.11,0,0,1,0,.411.132.132,0,0,0,.072.154c.144.041.288.072.452.113.164-.339.329-.658.493-.987C23.888,27.362,23.908,27.372,23.908,27.382Zm-2.5-.586c.031.144.062.3.1.442.041.175.1.339.154.514.02.072.052.134.133.144s.154.062.267.093c.185-.545.319-1.1.493-1.634-.031-.1-.144-.092-.216-.123s-.093-.031-.134.051a.382.382,0,0,1-.031.082q-.092.329-.185.668a.152.152,0,0,1-.123.123c-.01-.052-.01-.1-.02-.144a.482.482,0,0,0-.031-.175,3.469,3.469,0,0,1-.2-.73c-.01-.072-.031-.123-.1-.144-.123-.052-.247-.1-.391-.154-.226.545-.432,1.079-.627,1.614a.394.394,0,0,0,.288.113c.031.01.082-.031.1-.062l.216-.648c.031-.093.062-.175.092-.267.021-.031.052-.052.093-.1C21.339,26.591,21.38,26.694,21.411,26.8Zm-2.3-1.388a1.337,1.337,0,0,0-.308.5.719.719,0,0,0,.093.678,1.139,1.139,0,0,0,.873.442.483.483,0,0,0,.3-.092,1.066,1.066,0,0,0,.2-.175,1.155,1.155,0,0,0,.288-.555,1.235,1.235,0,0,0-.01-.39.509.509,0,0,0-.062-.175.91.91,0,0,0-.606-.452.926.926,0,0,0-.194-.021A.8.8,0,0,0,19.108,25.409Zm-1.655.092a1.677,1.677,0,0,0-.144.226.183.183,0,0,0,.062.1,1.367,1.367,0,0,0,.206.123q.236.144.483.3c.082.062.133.062.175,0a.487.487,0,0,0,.093-.165.085.085,0,0,0-.031-.113,1.585,1.585,0,0,1-.175-.1c.021-.041.031-.082.041-.1q.2-.319.38-.627c.093-.134.093-.134.236-.062.092.041.113.031.164-.051.031-.062.062-.123.1-.2a5.822,5.822,0,0,0-.823-.524c-.051.082-.082.133-.113.2-.062.092-.051.113.031.175l.123.092c-.185.288-.36.565-.545.853a1.223,1.223,0,0,0-.175-.113.206.206,0,0,0-.073-.015A.033.033,0,0,0,17.453,25.5Zm-.606-2.189a2.2,2.2,0,0,0-.185.226c.144.123.267.236.411.36a1.089,1.089,0,0,0-.113.133q-.349.421-.689.853c-.062.072-.062.093.01.165a.723.723,0,0,1,.144.1c.134.093.154.082.247-.041q.329-.421.658-.853a.8.8,0,0,1,.093-.092c.092.072.164.123.247.185.2.144.2.144.329-.052.01-.01.031-.02.031-.031a.092.092,0,0,0-.01-.113.745.745,0,0,0-.082-.072l-.925-.74c-.01-.01-.031-.041-.052-.041l-.065,0A.07.07,0,0,0,16.847,23.312Zm-1.84.1.391.432a.155.155,0,0,1,.031.185c-.031.062-.052.123-.082.185.113.093.216.2.339.3a.742.742,0,0,0,.092-.1q.185-.452.38-.894c.062-.165.123-.329.2-.483s.093-.278-.062-.391a.214.214,0,0,1-.031-.052.276.276,0,0,0-.339-.113c-.041.014-.079.028-.113.041-.072.031-.154.062-.226.093-.1.031-.206.051-.308.092a5.643,5.643,0,0,0-.586.2c-.031.021-.072.01-.1.021-.082.031-.164.051-.267.092a1,1,0,0,1,.144.185c.082.165.2.247.38.175a.147.147,0,0,1,.06-.014A.138.138,0,0,1,15.007,23.415ZM13.835,12.262c.021.318.031.637.062.966a11.514,11.514,0,0,0,.545,2.693,12.157,12.157,0,0,0,2.025,3.813,11.05,11.05,0,0,0,3.423,2.9c.35.2.72.36,1.09.535.113.052.236.1.35.154h.02q.072.031.134.052a6.639,6.639,0,0,0,1.264.37c.021.01.052,0,.072,0a.078.078,0,0,0-.051-.113q-.165-.051-.329-.113l-.062-.021a.424.424,0,0,1-.052-.02.08.08,0,0,0-.031-.01l-.144-.062a.26.26,0,0,1-.062-.031l-.062-.021-.247-.123-.041-.02c-.216-.123-.442-.216-.658-.339a11.374,11.374,0,0,1-3.875-3.526,12.09,12.09,0,0,1-1.234-2.231,12.473,12.473,0,0,1-.966-4.769v-.236H13.835Zm.72,8.87c-.052.1-.093.206-.144.308l-.432.894a.211.211,0,0,0-.02.154,2.446,2.446,0,0,0,.185.267c.031.041.072.031.1,0l.606-.421c.123-.082.247-.164.36-.247.123-.1.247-.2.37-.3a.375.375,0,0,0-.206-.257c-.247.164-.483.329-.72.483-.02.02-.062.01-.1.01l.535-1.069c-.041-.093-.082-.185-.134-.278s-.1-.113-.205-.072q-.288.134-.576.257c-.144.062-.3.123-.442.175l-.165.062a.592.592,0,0,0-.267.165,2.3,2.3,0,0,1,.113.236.1.1,0,0,0,.134.062.225.225,0,0,0,.092-.041c.123-.062.236-.134.36-.185a1.287,1.287,0,0,0,.37-.2.153.153,0,0,1,.1-.036A.177.177,0,0,1,14.555,21.133Zm12.622,7.123v-.247c-.01-.113-.01-.216-.021-.318A1.02,1.02,0,0,1,27.2,27.3a.56.56,0,0,1,.606.175.55.55,0,0,1-.041.719.422.422,0,0,1-.216.1c-.093.01-.185.01-.278.02l-.019,0A.075.075,0,0,1,27.177,28.256Zm-7.74-1.665a.466.466,0,0,1-.2-.637.96.96,0,0,1,.216-.288.362.362,0,0,1,.545-.01.324.324,0,0,1,.154.339.768.768,0,0,1-.36.6.329.329,0,0,1-.169.047A.465.465,0,0,1,19.437,26.591ZM15.573,23.5a2.125,2.125,0,0,1-.216-.216.1.1,0,0,1,.031-.154,4.383,4.383,0,0,1,.514-.185,2.206,2.206,0,0,1-.247.576C15.613,23.518,15.593,23.518,15.573,23.5ZM27.66,14.39c-.339-.02-.668-.041-1.007-.082q-.421-.062-.843-.154c-.442-.113-.884-.226-1.316-.35a6.348,6.348,0,0,1-.617-.247c-.185-.072-.37-.123-.565-.185V11.636a.343.343,0,0,0,0-.1A.419.419,0,0,1,23.4,11.1c.051-.062.1-.123.164-.185a.822.822,0,0,1,.627-.247c.586.01,1.172-.01,1.768-.01q.575-.011,1.151-.01,1.007-.01,2.014-.031c.144,0,.3-.01.442-.021a1.523,1.523,0,0,1,1.418,1.275c0,.041.01.082.01.113v2.241a1.071,1.071,0,0,0-.6-.01,3.423,3.423,0,0,1-.915.165c-.329-.01-.658.041-.987.041l-.152,0C28.122,14.424,27.887,14.407,27.66,14.39ZM6.383,10.1H.2q-.092,0-.2-.01c.1-.144.185-.3.288-.442s.205-.267.308-.4c.257-.339.514-.7.791-1.028.257-.308.545-.606.822-.9.226-.236.452-.473.688-.7s.514-.473.781-.709c.205-.185.411-.37.627-.545.236-.185.483-.36.709-.555a13.764,13.764,0,0,1,1.346-.946c.432-.288.874-.545,1.316-.8.4-.216.8-.421,1.2-.627.329-.154.668-.3,1-.432.38-.154.75-.308,1.12-.452.339-.134.668-.236,1.007-.35.236-.082.473-.175.72-.236C13.2.833,13.681.72,14.164.6q.411-.092.822-.175T15.8.278q.38-.062.771-.113c.206-.031.421-.041.637-.062.6-.051,1.2-.1,1.809-.1q.545,0,1.09.031a1.6,1.6,0,0,0,.222-.005,1.618,1.618,0,0,1,.22-.005c.257,0,.524.021.781.041l.74.062c.089.007.181.017.278.031q.432.052.873.113c.165.02.339.051.5.082.226.041.463.072.689.123q.385.077.771.185c.3.072.586.144.874.226s.576.175.863.257.555.175.833.277c.329.123.668.267,1,.4l.617.247.658.288c.236.113.473.226.7.35.411.226.812.442,1.213.668q.483.288.956.6c.37.247.74.5,1.09.771.4.3.791.617,1.172.946.288.236.565.5.833.761.329.308.648.627.956.945a14.536,14.536,0,0,1,1.09,1.275L38.8,9.683c.093.133.175.277.267.421H32.676l-.37-.432c-.206-.216-.4-.442-.606-.658a14.606,14.606,0,0,0-1.871-1.7,17.436,17.436,0,0,0-2.518-1.6A19.179,19.179,0,0,0,25.491,4.9a13.69,13.69,0,0,0-2.056-.637c-.4-.093-.791-.175-1.182-.236s-.771-.1-1.161-.134-.781-.041-1.182-.062c-.175-.01-.36-.02-.545-.02-.247.01-.483.031-.73.051-.205.01-.421.01-.627.031a16.95,16.95,0,0,0-2.128.329,16.688,16.688,0,0,0-1.737.493c-.473.175-.936.38-1.4.575-.4.165-.771.391-1.151.586-.4.205-.781.452-1.161.688a8.018,8.018,0,0,0-.761.555q-.385.277-.74.586a8.2,8.2,0,0,0-.637.555q-.483.463-.946.956c-.267.3-.524.606-.791.915A.878.878,0,0,0,6.383,10.1Zm1.326-3.6a.263.263,0,0,1,.062.3,1.111,1.111,0,0,1-.493.524c-.082.041-.154.072-.257.123.082.062.154.113.226.175.051-.031.092-.062.133-.082a1.558,1.558,0,0,0,.473-.462.591.591,0,0,0,.031-.658.415.415,0,0,0-.442-.205.864.864,0,0,0-.308.154c-.144.1-.288.226-.442.329a.21.21,0,0,1-.3-.01.229.229,0,0,1-.072-.308.964.964,0,0,1,.483-.5,1.353,1.353,0,0,1,.216-.093c.062-.031.072-.072.041-.113A.185.185,0,0,0,6.784,5.6a2.033,2.033,0,0,0-.5.432.813.813,0,0,0-.175.545.426.426,0,0,0,.154.3.4.4,0,0,0,.463.062,2.821,2.821,0,0,0,.421-.288q.154-.1.318-.2a.153.153,0,0,1,.085-.028A.265.265,0,0,1,7.709,6.506Zm22.942-.319c.257.216.5.421.761.627a.077.077,0,0,0,.133,0,.456.456,0,0,0,.062-.072.534.534,0,0,0-.1-.113c-.165-.134-.318-.278-.483-.411-.082-.072-.082-.093-.02-.185q.123-.175.257-.35c.051-.072.082-.072.154-.01l.575.493c.1.093.165.072.216-.093q-.37-.308-.751-.637a3.386,3.386,0,0,1,.329-.411c.247.216.473.411.709.606.113.1.144.093.226-.072q-.493-.421-1.007-.843C31.361,5.211,31.011,5.684,30.651,6.188ZM9.93,3.238a1.253,1.253,0,0,0-.463.205A.77.77,0,0,0,9.22,4.471a2.2,2.2,0,0,0,.206.329.837.837,0,0,0,.658.339.908.908,0,0,0,.3-.062.838.838,0,0,0,.565-.74,1.262,1.262,0,0,0-.185-.648.863.863,0,0,0-.565-.452,1.269,1.269,0,0,0-.155-.012A.458.458,0,0,0,9.93,3.238Zm18.317.791c.113.051.226.113.216.257a.3.3,0,0,0,.031.1q.062.2.113.4a1.346,1.346,0,0,0,.072.216.175.175,0,0,0,.206.082.078.078,0,0,0-.021-.052l-.226-.822a.07.07,0,0,1,.052-.093c.051-.01.1-.01.165-.02a.5.5,0,0,0,.411-.411.316.316,0,0,0-.021-.2.684.684,0,0,0-.36-.36c-.093-.041-.185-.093-.278-.123-.113-.052-.226-.082-.35-.134-.051.134-.113.257-.164.38-.062.154-.113.308-.165.463-.1.257-.205.5-.308.761-.02.072-.01.1.062.123h.113c.092-.216.175-.432.257-.638C28.133,4,28.195,4.009,28.246,4.029Zm-3.68-.9.133.031.555.144c.072.01.093.052.1.113.007.117.017.23.031.339s.051.144.2.1q-.1-.925-.205-1.871l-.329-.092c-.35.545-.7,1.069-1.048,1.6.175.072.2.062.277-.062l.165-.267a.089.089,0,0,1,.078-.051A.125.125,0,0,1,24.566,3.125ZM12.735,2.107c.052.144.082.267.123.391s.072.236.113.349q.062.2.113.391c.041.123.082.236.113.36a.427.427,0,0,0,.113.226c.123-.041.144-.072.1-.205q-.082-.288-.175-.576c-.021-.072-.01-.1.062-.123q.319-.072.627-.154c.093-.02.113-.072.093-.154s-.062-.093-.165-.062q-.308.093-.627.175a.063.063,0,0,1-.093-.041,2.576,2.576,0,0,1-.082-.3c-.031-.134,0-.165.134-.2A2.671,2.671,0,0,0,13.6,2.1l.267-.062c.144-.041.175-.1.092-.247C13.558,1.891,13.157,1.994,12.735,2.107Zm8.274-.35c.031.165.052.329.082.493.041.247.092.5.133.761a.133.133,0,0,0,.093.123.287.287,0,0,0,.185,0c.216-.565.442-1.131.637-1.7-.144-.093-.216-.031-.257.113q-.093.236-.175.483-.1.277-.205.545a1.129,1.129,0,0,1-.082.2H21.38c-.041-.277-.1-.555-.144-.833-.031-.185-.062-.37-.082-.565-.01-.082-.082-.092-.144-.092a.112.112,0,0,0-.144.082c-.021.051-.021.092-.041.144-.062.185-.123.36-.185.545s-.1.36-.154.545c-.01.02-.052.041-.072.062a.444.444,0,0,0-.052-.072V2.549c-.031-.154-.062-.318-.092-.473q-.072-.3-.144-.606a.66.66,0,0,0-.082-.2.09.09,0,0,0-.134-.031.119.119,0,0,0-.02.1q.041.277.1.555c.021.123.052.236.082.36.041.185.092.37.123.565.031.175.072.226.267.257a.6.6,0,0,0,.123-.257,1.823,1.823,0,0,1,.1-.308q.051-.164.1-.319c.051-.175.1-.349.164-.555A.82.82,0,0,1,21.01,1.758Zm-4.317-.144q.02.144.041.278t.031.257q.041.442.082.874l.01.01a.082.082,0,0,0,.093.093c.031,0,.072-.01.113-.01-.021-.277-.052-.535-.062-.791a4.146,4.146,0,0,1-.062-.812,1.127,1.127,0,0,0,.185,0c.123,0,.247-.01.37-.021a.1.1,0,0,0,.082-.123c0-.072-.041-.093-.1-.082-.144,0-.278,0-.421.01-.082.01-.154.031-.226.041l-.668.062c-.144.02-.154.062-.082.205l.6-.041C16.672,1.573,16.693,1.593,16.693,1.614ZM9.673,4.749a1.172,1.172,0,0,1-.319-.514.518.518,0,0,1,.093-.483.8.8,0,0,1,.6-.308.535.535,0,0,1,.411.185.944.944,0,0,1,.277.74.627.627,0,0,1-.318.463.6.6,0,0,1-.339.092A.517.517,0,0,1,9.673,4.749Zm18.471-1,.123-.37c.02-.052.041-.1.062-.144.021-.062.052-.1.113-.072.144.062.288.123.421.2a.309.309,0,0,1,.185.308.327.327,0,0,1-.278.267.608.608,0,0,1-.077.005A1.157,1.157,0,0,1,28.143,3.752ZM24.946,3c-.1-.031-.205-.062-.329-.092.144-.278.339-.514.5-.771.01-.01.041-.01.082-.031a2.3,2.3,0,0,1,.031.247,1.617,1.617,0,0,0,.072.545,1.118,1.118,0,0,1,0,.185C25.173,3.053,25.06,3.032,24.946,3Z" transform="translate(3.382 0)" fill="#014087"/>
        <path id="Union_8" data-name="Union 8" d="M3.6,22H3.484c-.164-.247-.329-.493-.483-.75-.133-.216-.278-.432-.4-.658-.165-.3-.319-.6-.473-.894l-.277-.555c-.134-.288-.267-.586-.4-.884-.216-.524-.4-1.048-.565-1.593C.791,16.374.7,16.1.627,15.8c-.082-.267-.133-.534-.2-.8C.39,14.781.339,14.565.3,14.36q-.072-.4-.123-.791A12.573,12.573,0,0,1,.02,12.057c0-.185-.01-.38-.02-.576a.447.447,0,0,1,.1-.02c.2,0,.38.01.565.01.123,0,.247-.01.37-.01H2.569c.144,0,.278-.021.411-.021.154,0,.3.021.452.021l2.528-.021h.165c0,.062.01.1.01.154s-.031.123.062.154c.01.01.01.052.01.082a17.056,17.056,0,0,0,.2,1.778c.092.493.175.976.3,1.46.144.575.339,1.141.514,1.706a14.371,14.371,0,0,0,1.048,2.374c.082.165.154.339.247.5.123.216.267.411.39.617a15.731,15.731,0,0,0,1.2,1.645.554.554,0,0,1,.052.082ZM40.19,22H35.955a.916.916,0,0,1-.164-.031c.154-.2.318-.39.473-.586a15.353,15.353,0,0,0,.976-1.439c.288-.473.565-.956.812-1.46a15.054,15.054,0,0,0,.689-1.624,12.823,12.823,0,0,0,.6-1.943c.093-.4.175-.791.247-1.193.062-.349.092-.7.133-1.038.041-.463.072-.915.1-1.4h2.6l3.1-.02h.267c0,.216.01.411,0,.617q-.031.638-.093,1.275c-.02.206-.062.411-.1.617-.062.39-.123.771-.216,1.161s-.185.781-.3,1.161c-.062.236-.144.473-.216.709a15.644,15.644,0,0,1-.565,1.511c-.133.308-.257.617-.4.925s-.319.606-.483.915q-.231.432-.493.863c-.2.329-.411.648-.617.976Zm-28.318-.833a1.992,1.992,0,0,1-.493-.565.568.568,0,0,1-.072-.288q.01-1.213,0-2.426c0-1.028-.01-2.066-.01-3.1v-.73q-.01-1.716-.01-3.433-.01-1.532-.02-3.053,0-.473-.01-.946c.031-.01.062-.021.1-.031.01.062.031.113.041.164a15.5,15.5,0,0,0,.38,1.511,12.27,12.27,0,0,0,.576,1.552c.216.493.463.966.72,1.439.236.432.5.853.781,1.275q.329.5.7.987c.226.288.473.555.72.843.308.36.637.709.976,1.038.267.247.535.483.8.72.308.257.617.524.935.781.257.205.524.39.791.576q.237.174.473.339c.082.051.175.1.257.154,0,.576.01,1.162,0,1.737a1.651,1.651,0,0,1-.812,1.449.439.439,0,0,1-.205.062q-1.974,0-3.957.01H13.65q-.781,0-1.552.01l-.034,0A.29.29,0,0,1,11.872,21.164ZM34.526,14.02a3.365,3.365,0,0,0-.442-.2,3.288,3.288,0,0,0-.781-.144c-.321-.019-.637-.018-.955-.018-.192,0-.384,0-.577,0-.226,0-.463-.01-.7-.031-.267-.021-.535-.072-.8-.1-.123-.02-.257-.02-.391-.041-.247-.031-.493-.072-.74-.1-.226-.041-.452-.062-.678-.1a6.182,6.182,0,0,1-.627-.165q-.329-.082-.648-.185a2.343,2.343,0,0,0-.463-.123c-.01,0-.02-.021-.031-.021V3.279c.2.062.38.113.565.185a6.376,6.376,0,0,0,.617.247c.432.123.874.236,1.316.35q.421.092.843.154c.339.041.668.062,1.008.082a7.711,7.711,0,0,0,.843.031c.329,0,.658-.052.987-.041a3.421,3.421,0,0,0,.915-.165,1.073,1.073,0,0,1,.6.01v8.449l-.01.01.01.01c.01.339.031.668.031,1a.381.381,0,0,0,.185.39c-.007.027-.018.041-.037.041A.08.08,0,0,1,34.526,14.02ZM.082,8.973c.02-.206.051-.4.072-.6C.236,7.8.339,7.236.473,6.671q.1-.442.226-.884c.113-.36.216-.73.339-1.079.144-.4.3-.791.463-1.182.113-.3.247-.606.38-.9s.288-.6.442-.884Q2.5,1.4,2.7,1.059c.165-.278.35-.555.524-.833.052-.072.1-.154.154-.226q.1.01.2.01H9.765A.878.878,0,0,1,9.94.041L9.261.966a13.743,13.743,0,0,0-.915,1.49A17.059,17.059,0,0,0,6.979,5.623,17.647,17.647,0,0,0,6.3,8.8a.613.613,0,0,1-.021.123,1.848,1.848,0,0,1-.236.031c-.113.01-.226,0-.339,0L.35,8.973Zm39.491-1.09q-.185-.874-.4-1.758a10.7,10.7,0,0,0-.524-1.593,15.746,15.746,0,0,0-.8-1.748A15.736,15.736,0,0,0,36.9,1.172c-.257-.36-.524-.72-.791-1.079A.558.558,0,0,1,36.058.01h6.393c.144.216.278.421.421.648s.277.442.4.668c.144.267.278.545.411.812.093.175.185.35.278.535.2.432.38.853.555,1.3a18.994,18.994,0,0,1,.606,1.83q.185.617.308,1.244a11.786,11.786,0,0,1,.247,1.583c.01.041.021.092.031.154-2-.01-4.009.02-6,.02C39.655,8.48,39.625,8.182,39.573,7.884Z" transform="translate(0 10.093)" fill="#001952"/>
      </g>
    </g>
  </g>
</svg>
