<svg id="message" xmlns="http://www.w3.org/2000/svg" width="23.66" height="23.66" viewBox="0 0 23.66 23.66">
  <g id="Chat" transform="translate(0 0)">
    <path id="Path_3546" data-name="Path 3546" d="M11.854,0A11.83,11.83,0,1,1,6.01,22.12a2.011,2.011,0,0,0-1.763-.427h0l-2.39.711a.739.739,0,0,1-.97-.924h0l.793-2.654A1.24,1.24,0,0,0,1.6,17.76,12.526,12.526,0,0,1,0,11.848,11.838,11.838,0,0,1,11.854,0ZM17.26,10.343a1.517,1.517,0,1,0,1.514,1.517A1.511,1.511,0,0,0,17.26,10.343Zm-5.454,0a1.508,1.508,0,0,0-1.514,1.5,1.514,1.514,0,1,0,3.029.012A1.511,1.511,0,0,0,11.806,10.343Zm-5.454,0A1.511,1.511,0,0,0,4.839,11.86a1.514,1.514,0,1,0,3.029,0A1.511,1.511,0,0,0,6.353,10.343Z" fill="#014087"/>
  </g>
</svg>
