<svg xmlns="http://www.w3.org/2000/svg" width="142.962" height="138.438" viewBox="0 0 142.962 138.438">
  <g id="no_files" transform="translate(-141.937 -386.562)">
    <circle id="Ellipse_445" data-name="Ellipse 445" cx="67" cy="67" r="67" transform="translate(147 391)" fill="#e6f2ff"/>
    <g id="Rectangle_2978" data-name="Rectangle 2978" transform="translate(166.176 424.011)" fill="#b1cbe8" stroke="#599fef" stroke-width="2">
      <rect width="89.828" height="41.126" rx="5" stroke="none"/>
      <rect x="1" y="1" width="87.828" height="39.126" rx="4" fill="none"/>
    </g>
    <path id="Union_24" data-name="Union 24" d="M15.879,63.432a15,15,0,0,1-6.184-.983A7.2,7.2,0,0,1,5.9,57.785L0,20.082a9.241,9.241,0,0,1,1.471-5.554A5.532,5.532,0,0,1,6.2,12.414h.016l45.89-1.28L66.324,0h36.859s8.509.58,7.068,8.7c-.552,3.112-1.243,6.5-1.886,9.5L102.4,55.651l-.007.042v.043a7.894,7.894,0,0,1-3.367,5.938c-1.92,1.392-6.661,1.8-8.94,1.8Z" transform="translate(158.793 438.517)" fill="#fff" stroke="#599fef" stroke-width="2"/>
    <path id="Path_3584" data-name="Path 3584" d="M-6662.848-10310.095s-4.2-34.96,21.066-32.233c12.2,1.317,9.819,11.613,3.209,13.54-6.463,1.89-17.339-5.053-7.526-18.747,18.98-26.487,34.4-5.792,34.4-5.792" transform="translate(6882 10748.611)" fill="none" stroke="#599fef" stroke-width="2" stroke-dasharray="5"/>
    <g id="Group_2531" data-name="Group 2531" transform="translate(0.682 -1.201)">
      <g id="Ellipse_450" data-name="Ellipse 450" transform="translate(266.419 405.498) rotate(-43)" fill="none" stroke="#599fef" stroke-width="1.8">
        <ellipse cx="3.522" cy="4.108" rx="3.522" ry="4.108" stroke="none"/>
        <ellipse cx="3.522" cy="4.108" rx="2.622" ry="3.208" fill="none"/>
      </g>
      <g id="Ellipse_451" data-name="Ellipse 451" transform="translate(273.462 400.092) rotate(-43)" fill="none" stroke="#599fef" stroke-width="1.8">
        <ellipse cx="3.522" cy="4.108" rx="3.522" ry="4.108" stroke="none"/>
        <ellipse cx="3.522" cy="4.108" rx="2.622" ry="3.208" fill="none"/>
      </g>
      <g id="Ellipse_452" data-name="Ellipse 452" transform="translate(269.176 401.62) rotate(-43)" fill="#fff" stroke="#599fef" stroke-width="1.8">
        <ellipse cx="3.522" cy="5.131" rx="3.522" ry="5.131" stroke="none"/>
        <ellipse cx="3.522" cy="5.131" rx="2.622" ry="4.231" fill="none"/>
      </g>
    </g>
    <g id="Group_2537" data-name="Group 2537">
      <g id="Ellipse_450-2" data-name="Ellipse 450" transform="translate(151.161 398.114) rotate(89)" fill="none" stroke="#599fef" stroke-width="1.8">
        <ellipse cx="3.521" cy="4.108" rx="3.521" ry="4.108" stroke="none"/>
        <ellipse cx="3.521" cy="4.108" rx="2.621" ry="3.208" fill="none"/>
      </g>
      <g id="Ellipse_451-2" data-name="Ellipse 451" transform="translate(150.465 406.966) rotate(89)" fill="none" stroke="#599fef" stroke-width="1.8">
        <ellipse cx="3.521" cy="4.108" rx="3.521" ry="4.108" stroke="none"/>
        <ellipse cx="3.521" cy="4.108" rx="2.621" ry="3.208" fill="none"/>
      </g>
      <g id="Ellipse_452-2" data-name="Ellipse 452" transform="translate(152.198 402.759) rotate(89)" fill="#fff" stroke="#599fef" stroke-width="1.8">
        <ellipse cx="3.521" cy="5.131" rx="3.521" ry="5.131" stroke="none"/>
        <ellipse cx="3.521" cy="5.131" rx="2.621" ry="4.231" fill="none"/>
      </g>
    </g>
    <g id="Union_25" data-name="Union 25" transform="translate(-6653 -10282)" fill="#b1cbe8">
      <path d="M 6924.59619140625 10803.677734375 C 6923.93896484375 10803.677734375 6923.32470703125 10803.4169921875 6922.8671875 10802.9443359375 L 6915.2431640625 10795.0498046875 L 6914.68408203125 10794.470703125 L 6913.99951171875 10794.892578125 C 6910.70068359375 10796.92578125 6906.8974609375 10798 6903.0009765625 10798 C 6900.16552734375 10798 6897.4150390625 10797.4453125 6894.82666015625 10796.3505859375 C 6892.326171875 10795.29296875 6890.08056640625 10793.7783203125 6888.1513671875 10791.849609375 C 6886.22265625 10789.9208984375 6884.70849609375 10787.6748046875 6883.65087890625 10785.1748046875 C 6882.55615234375 10782.5859375 6882.0009765625 10779.8359375 6882.0009765625 10777 C 6882.0009765625 10774.1640625 6882.55615234375 10771.4140625 6883.65087890625 10768.8251953125 C 6884.70849609375 10766.3251953125 6886.22265625 10764.0791015625 6888.1513671875 10762.150390625 C 6890.08056640625 10760.2216796875 6892.326171875 10758.70703125 6894.82666015625 10757.6494140625 C 6897.4150390625 10756.5546875 6900.16552734375 10756 6903.0009765625 10756 C 6905.8359375 10756 6908.5859375 10756.5546875 6911.173828125 10757.6494140625 C 6913.6748046875 10758.70703125 6915.92041015625 10760.2216796875 6917.849609375 10762.150390625 C 6919.77880859375 10764.0791015625 6921.29296875 10766.3251953125 6922.35107421875 10768.826171875 C 6923.44580078125 10771.4140625 6924.0009765625 10774.1640625 6924.0009765625 10777 C 6924.0009765625 10779.5517578125 6923.548828125 10782.044921875 6922.65625 10784.41015625 C 6921.79443359375 10786.6953125 6920.5478515625 10788.7978515625 6918.9501953125 10790.662109375 L 6918.35791015625 10791.3525390625 L 6918.990234375 10792.0068359375 L 6926.32666015625 10799.6025390625 C 6927.2470703125 10800.5576171875 6927.22119140625 10802.0830078125 6926.267578125 10803.001953125 C 6925.81591796875 10803.4375 6925.22265625 10803.677734375 6924.59619140625 10803.677734375 Z" stroke="none"/>
      <path d="M 6924.59619140625 10802.677734375 C 6924.9619140625 10802.677734375 6925.30908203125 10802.537109375 6925.57373046875 10802.2822265625 C 6926.1298828125 10801.7451171875 6926.14453125 10800.8544921875 6925.607421875 10800.2978515625 L 6917.00634765625 10791.392578125 L 6918.19091796875 10790.0107421875 C 6919.71240234375 10788.236328125 6920.89990234375 10786.232421875 6921.720703125 10784.0576171875 C 6922.5703125 10781.8056640625 6923.0009765625 10779.4306640625 6923.0009765625 10777 C 6923.0009765625 10774.298828125 6922.47216796875 10771.6796875 6921.4296875 10769.21484375 C 6920.42236328125 10766.833984375 6918.97998046875 10764.6953125 6917.142578125 10762.857421875 C 6915.30517578125 10761.0205078125 6913.166015625 10759.578125 6910.78466796875 10758.5703125 C 6908.3203125 10757.5283203125 6905.70166015625 10757 6903.0009765625 10757 C 6900.2998046875 10757 6897.6806640625 10757.5283203125 6895.21630859375 10758.5703125 C 6892.8349609375 10759.578125 6890.69580078125 10761.0205078125 6888.8583984375 10762.857421875 C 6887.021484375 10764.6943359375 6885.5791015625 10766.833984375 6884.57177734375 10769.21484375 C 6883.529296875 10771.6796875 6883.0009765625 10774.298828125 6883.0009765625 10777 C 6883.0009765625 10779.701171875 6883.529296875 10782.3203125 6884.57177734375 10784.78515625 C 6885.5791015625 10787.166015625 6887.021484375 10789.3056640625 6888.8583984375 10791.142578125 C 6890.69580078125 10792.9794921875 6892.8349609375 10794.421875 6895.21630859375 10795.4296875 C 6897.6806640625 10796.4716796875 6900.2998046875 10797 6903.0009765625 10797 C 6906.71240234375 10797 6910.333984375 10795.9765625 6913.474609375 10794.041015625 L 6914.8447265625 10793.197265625 L 6923.5859375 10802.2490234375 C 6923.853515625 10802.525390625 6924.2119140625 10802.677734375 6924.59619140625 10802.677734375 M 6924.59619140625 10804.677734375 C 6923.7060546875 10804.677734375 6922.81640625 10804.330078125 6922.1484375 10803.6396484375 L 6914.52392578125 10795.744140625 C 6911.17236328125 10797.8095703125 6907.22607421875 10799 6903.0009765625 10799 C 6890.85009765625 10799 6881.0009765625 10789.1513671875 6881.0009765625 10777 C 6881.0009765625 10764.8486328125 6890.85009765625 10755 6903.0009765625 10755 C 6915.1494140625 10755 6925.0009765625 10764.8486328125 6925.0009765625 10777 C 6925.0009765625 10782.4658203125 6923.0078125 10787.46484375 6919.70947265625 10791.3125 L 6927.0458984375 10798.908203125 C 6928.35009765625 10800.2607421875 6928.31494140625 10802.4169921875 6926.9619140625 10803.7216796875 C 6926.30029296875 10804.3603515625 6925.44775390625 10804.677734375 6924.59619140625 10804.677734375 Z" stroke="none" fill="#599fef"/>
    </g>
    <g id="Ellipse_453" data-name="Ellipse 453" transform="translate(235 480)" fill="#fff" stroke="#599fef" stroke-width="2">
      <circle cx="15" cy="15" r="15" stroke="none"/>
      <circle cx="15" cy="15" r="14" fill="none"/>
    </g>
    <path id="Path_3585" data-name="Path 3585" d="M-6725.176-10346.656s48.63.891,51.777,41.345" transform="translate(6879 10753)" fill="none" stroke="#599fef" stroke-width="2" stroke-dasharray="5"/>
    <path id="Path_3572" data-name="Path 3572" d="M-6632.727-10262.415a1,1,0,0,1-.693-.278c-4.47-4.293-9.016-6.464-13.526-6.464q-.475,0-.948.032a16.586,16.586,0,0,0-8.556,3.317,18.7,18.7,0,0,0-3.256,3.013,1,1,0,0,1-1.4.164,1,1,0,0,1-.165-1.4,20.266,20.266,0,0,1,3.581-3.34,18.441,18.441,0,0,1,9.643-3.745q.558-.038,1.115-.038c5.038,0,10.045,2.357,14.9,7.021a1,1,0,0,1,.029,1.414A.994.994,0,0,1-6632.727-10262.415Z" transform="translate(6861.698 10746.597)" fill="#599fef"/>
    <circle id="Ellipse_454" data-name="Ellipse 454" cx="2.5" cy="2.5" r="2.5" transform="translate(198 465)" fill="#599fef"/>
    <circle id="Ellipse_455" data-name="Ellipse 455" cx="2.5" cy="2.5" r="2.5" transform="translate(224 465)" fill="#599fef"/>
  </g>
</svg>
