<svg xmlns="http://www.w3.org/2000/svg" width="151.671" height="134" viewBox="0 0 151.671 134">
  <g id="no_media" transform="translate(-139.238 -391)">
    <circle id="Ellipse_445" data-name="Ellipse 445" cx="67" cy="67" r="67" transform="translate(147 391)" fill="#e6f2ff"/>
    <g id="Group_2534" data-name="Group 2534" transform="translate(140.45 428.786) rotate(-14)">
      <path id="Subtraction_27" data-name="Subtraction 27" d="M55.916,83.645H11a11,11,0,0,1-11-11V11A11,11,0,0,1,11,0H45.676l21.24,18.682V72.645a11,11,0,0,1-11,11Z" transform="translate(0 0)" fill="#fff" stroke="#599fef" stroke-width="2"/>
      <path id="Path_3566" data-name="Path 3566" d="M21.138,19.555,0,0V19.555Z" transform="translate(45.779 0.263)" fill="#599fef" stroke="#599fef" stroke-linejoin="round" stroke-width="2"/>
    </g>
    <g id="Group_2535" data-name="Group 2535" transform="matrix(0.998, 0.07, -0.07, 0.998, 179.362, 414.626)">
      <path id="Subtraction_27-2" data-name="Subtraction 27" d="M55.916,83.645H11a11,11,0,0,1-11-11V11A11,11,0,0,1,11,0H45.676l21.24,18.681V72.645a11,11,0,0,1-11,11Z" transform="translate(0 0)" fill="#fff" stroke="#599fef" stroke-width="2"/>
      <path id="Path_3566-2" data-name="Path 3566" d="M21.138,19.555,0,0V19.555Z" transform="translate(45.779 0.263)" fill="#599fef" stroke="#599fef" stroke-linejoin="round" stroke-width="2"/>
    </g>
    <g id="Group_2536" data-name="Group 2536" transform="matrix(0.946, 0.326, -0.326, 0.946, 226.368, 412.563)">
      <path id="Subtraction_27-3" data-name="Subtraction 27" d="M55.916,83.645H11a11,11,0,0,1-11-11V11A11,11,0,0,1,11,0H45.676l21.24,18.682V72.645a11,11,0,0,1-11,11Z" transform="translate(0 0)" fill="#fff" stroke="#599fef" stroke-width="2"/>
      <path id="Path_3566-3" data-name="Path 3566" d="M21.138,19.554,0,0V19.554Z" transform="translate(45.779 0.263)" fill="#599fef" stroke="#599fef" stroke-linejoin="round" stroke-width="2"/>
    </g>
  </g>
</svg>
