<svg xmlns="http://www.w3.org/2000/svg" width="134" height="134.5" viewBox="0 0 134 134.5">
  <g id="Group_2544" data-name="Group 2544" transform="translate(-147 -390.5)">
    <circle id="Ellipse_445" data-name="Ellipse 445" cx="67" cy="67" r="67" transform="translate(147 391)" fill="#e6f2ff"/>
    <g id="Group_2527" data-name="Group 2527" transform="translate(172.569 406.816)">
      <path id="Subtraction_30" data-name="Subtraction 30" d="M71,102H11A11,11,0,0,1,0,91V11A11,11,0,0,1,11,0h44.97L82,22.781V91a11,11,0,0,1-11,11Z" transform="translate(0.431 0.184)" fill="#fff" stroke="#599fef" stroke-width="2"/>
      <path id="Path_3574" data-name="Path 3574" d="M-6247.164-6649.169l-25.759-23.83v23.83Z" transform="translate(6328.71 6674.206)" fill="#599fef" stroke="#599fef" stroke-linejoin="round" stroke-width="2"/>
      <path id="Path_3575" data-name="Path 3575" d="M-6540.359-6583.24h31.023" transform="translate(6551.564 6598.096)" fill="none" stroke="#599fef" stroke-width="2"/>
      <path id="Path_3578" data-name="Path 3578" d="M-6540.358-6583.24h44.707" transform="translate(6551.438 6637.096)" fill="none" stroke="#599fef" stroke-width="2"/>
      <path id="Path_3576" data-name="Path 3576" d="M-6540.358-6571.754h15.165" transform="translate(6551.564 6596.791)" fill="none" stroke="#599fef" stroke-width="2"/>
      <path id="Path_3577" data-name="Path 3577" d="M-6540.358-6571.754h44.707" transform="translate(6551.438 6635.791)" fill="none" stroke="#599fef" stroke-width="2"/>
      <path id="Path_3579" data-name="Path 3579" d="M-6540.358-6556.806h44.707" transform="translate(6551.438 6631.024)" fill="none" stroke="#599fef" stroke-width="2"/>
      <path id="Path_3580" data-name="Path 3580" d="M-6540.358-6538.79h44.707" transform="translate(6551.438 6623.189)" fill="none" stroke="#599fef" stroke-width="2"/>
    </g>
    <g id="Union_23" data-name="Union 23" transform="translate(180.547 431.634)" fill="#b1cbe8">
      <path d="M 73.90436553955078 80.73407745361328 C 72.96466064453125 80.73410797119141 72.08769226074219 80.36194610595703 71.43502807617188 79.68611907958984 L 56.2649040222168 63.97763442993164 L 55.67617034912109 63.36801147460938 L 54.97825622558594 63.84881210327148 C 49.222412109375 67.81414794921875 42.47123718261719 69.91010284423828 35.4546012878418 69.91010284423828 C 30.80274772644043 69.91010284423828 26.29060173034668 68.99927520751953 22.04350280761719 67.20293426513672 C 17.94079208374023 65.46765899658203 14.25596904754639 62.98323440551758 11.0914249420166 59.81867980957031 C 7.926868915557861 56.65413284301758 5.442446708679199 52.96931076049805 3.707169055938721 48.86660003662109 C 1.910824537277222 44.61949920654297 1.000002384185791 40.10735702514648 1.000002384185791 35.45550155639648 C 1.000002384185791 30.80364418029785 1.910824537277222 26.29150009155273 3.707169055938721 22.04440116882324 C 5.442446708679199 17.94169044494629 7.926868915557861 14.25686740875244 11.0914249420166 11.09232330322266 C 14.25596904754639 7.927767276763916 17.94079208374023 5.443345069885254 22.04350280761719 3.708067417144775 C 26.29060173034668 1.911722898483276 30.80274772644043 1.000900626182556 35.4546012878418 1.000900626182556 C 40.1064567565918 1.000900626182556 44.61860275268555 1.911722898483276 48.86570358276367 3.708067417144775 C 52.96841430664062 5.443345069885254 56.65323638916016 7.927767276763916 59.81777954101562 11.09232330322266 C 62.98233413696289 14.25686740875244 65.46675872802734 17.94169044494629 67.20203399658203 22.04440116882324 C 68.99838256835938 26.29150009155273 69.90920257568359 30.80364418029785 69.90920257568359 35.45550155639648 C 69.90920257568359 39.69754409790039 69.14759063720703 43.83896636962891 67.64551544189453 47.76471328735352 C 66.19440460205078 51.55726623535156 64.09774780273438 55.03832244873047 61.41381454467773 58.11117935180664 L 60.80958938598633 58.80294418334961 L 61.44762420654297 59.46366882324219 L 76.37195587158203 74.91855621337891 C 77.68629455566406 76.27951049804688 77.64841461181641 78.45649719238281 76.28753662109375 79.77146911621094 C 75.64461517333984 80.39204406738281 74.79811096191406 80.73403167724609 73.90435028076172 80.73407745361328 L 73.90436553955078 80.73407745361328 Z" stroke="none"/>
      <path d="M 73.90431213378906 79.73407745361328 C 74.53764343261719 79.73404693603516 75.13750457763672 79.49167633056641 75.59266662597656 79.05232238769531 C 76.55711364746094 78.12042236328125 76.58403778076172 76.57765960693359 75.65261840820312 75.61319732666016 L 59.45220184326172 58.83688735961914 L 60.66064071655273 57.45333862304688 C 63.26683807373047 54.46948623657227 65.30266571044922 51.08953857421875 66.71154022216797 47.4073600769043 C 68.1697998046875 43.59611129760742 68.90920257568359 39.57492446899414 68.90920257568359 35.45549774169922 C 68.90920257568359 30.93819999694824 68.02495574951172 26.55712509155273 66.28102874755859 22.4339485168457 C 64.59616851806641 18.45043754577637 62.1837158203125 14.87246131896973 59.11067581176758 11.79942417144775 C 56.03763961791992 8.726387023925781 52.45966339111328 6.313936710357666 48.47615051269531 4.629074096679688 C 44.35297775268555 2.885149240493774 39.97190093994141 2.000899314880371 35.4546012878418 2.000899314880371 C 30.93730163574219 2.000899314880371 26.55622673034668 2.885149240493774 22.43305206298828 4.629074096679688 C 18.44953918457031 6.313936710357666 14.8715648651123 8.726387023925781 11.79852771759033 11.79942417144775 C 8.725489616394043 14.87246131896973 6.313039779663086 18.45043754577637 4.628177165985107 22.4339485168457 C 2.884252309799194 26.55712509155273 2.000002384185791 30.93819999694824 2.000002384185791 35.45549774169922 C 2.000002384185791 39.97279739379883 2.884252309799194 44.35387420654297 4.628177165985107 48.47705078125 C 6.313039779663086 52.4605598449707 8.725489616394043 56.03853607177734 11.79852771759033 59.11157608032227 C 14.8715648651123 62.18461227416992 18.44953918457031 64.59706115722656 22.43305206298828 66.28192138671875 C 26.55622673034668 68.02584838867188 30.93730163574219 68.91010284423828 35.4546012878418 68.91010284423828 C 42.26770401000977 68.91010284423828 48.82268905639648 66.87517547607422 54.41092681884766 63.02532577514648 L 55.8067512512207 62.06371307373047 L 72.15434265136719 78.99144744873047 C 72.61685180664062 79.47035980224609 73.23834228515625 79.73410034179688 73.90431213378906 79.73407745361328 M 73.90440368652344 81.73407745361328 C 72.74402618408203 81.73412322998047 71.58536529541016 81.28131103515625 70.71570587158203 80.38079833984375 L 55.54557800292969 64.67230987548828 C 49.83512878417969 68.60636138916016 42.91351318359375 70.91010284423828 35.4546012878418 70.91010284423828 C 15.8733024597168 70.91010284423828 2.362060513405595e-06 55.03680038452148 2.362060513405595e-06 35.45549774169922 C 2.362060513405595e-06 15.87419891357422 15.8733024597168 0.0008992492803372443 35.4546012878418 0.0008992492803372443 C 55.03590393066406 0.0008992492803372443 70.90920257568359 15.87419891357422 70.90920257568359 35.45549774169922 C 70.90920257568359 44.38086318969727 67.61067962646484 52.5364875793457 62.16696548461914 58.76901245117188 L 77.09130096435547 74.22389984130859 C 78.79140472412109 75.98429870605469 78.74280548095703 78.78961181640625 76.98239898681641 80.4906005859375 C 76.12207794189453 81.32103729248047 75.012451171875 81.73402404785156 73.90440368652344 81.73407745361328 Z" stroke="none" fill="#599fef"/>
    </g>
    <g id="Ellipse_447" data-name="Ellipse 447" transform="translate(192 443)" fill="#fff" stroke="#599fef" stroke-width="2">
      <circle cx="24" cy="24" r="24" stroke="none"/>
      <circle cx="24" cy="24" r="23" fill="none"/>
    </g>
    <g id="Group_2530" data-name="Group 2530" transform="translate(203.796 459.986)">
      <g id="Group_2528" data-name="Group 2528" transform="translate(0 0)">
        <circle id="Ellipse_448" data-name="Ellipse 448" cx="2.216" cy="2.216" r="2.216" transform="translate(3.138 4.456)" fill="#599fef"/>
        <circle id="Ellipse_449" data-name="Ellipse 449" cx="2.216" cy="2.216" r="2.216" transform="translate(10.229 13.319)" fill="#599fef"/>
        <path id="Path_3581" data-name="Path 3581" d="M-6658.541-6634.679l4.6-3.348" transform="translate(6658.541 6638.027)" fill="none" stroke="#599fef" stroke-linecap="round" stroke-width="2"/>
      </g>
      <g id="Group_2529" data-name="Group 2529" transform="translate(16.841 0)">
        <ellipse id="Ellipse_448-2" data-name="Ellipse 448" cx="2.216" cy="2.216" rx="2.216" ry="2.216" transform="translate(0 4.456)" fill="#599fef"/>
        <path id="Path_3581-2" data-name="Path 3581" d="M-6653.937-6634.68l-4.6-3.348" transform="translate(6661.506 6638.027)" fill="none" stroke="#599fef" stroke-linecap="round" stroke-width="2"/>
      </g>
    </g>
    <g id="Group_2522" data-name="Group 2522" transform="translate(157.541 391)">
      <path id="Path_3558" data-name="Path 3558" d="M-7483.332-5847.361h-9.866a1.4,1.4,0,0,1-1.4-1.4,1.4,1.4,0,0,1,1.4-1.4h9.866a1.4,1.4,0,0,1,1.4,1.4A1.4,1.4,0,0,1-7483.332-5847.361Z" transform="translate(7494.601 5867.461)" fill="#b1cbe8" stroke="#599fef" stroke-linecap="round" stroke-width="1"/>
      <path id="Path_3559" data-name="Path 3559" d="M-7469.582-5862.137a1.4,1.4,0,0,1-1.4-1.4v-9.868a1.4,1.4,0,0,1,1.4-1.4,1.4,1.4,0,0,1,1.4,1.4v9.868A1.4,1.4,0,0,1-7469.582-5862.137Z" transform="translate(7487.556 5874.812)" fill="#b1cbe8" stroke="#599fef" stroke-linecap="round" stroke-width="1"/>
      <path id="Path_3560" data-name="Path 3560" d="M-7478.749-5857.707a1.4,1.4,0,0,1-1.011-.43l-8.61-8.935a1.4,1.4,0,0,1,.037-1.984,1.4,1.4,0,0,1,1.984.036l8.611,8.935a1.4,1.4,0,0,1-.037,1.984A1.4,1.4,0,0,1-7478.749-5857.707Z" transform="translate(7492.159 5873.212)" fill="#b1cbe8" stroke="#599fef" stroke-linecap="round" stroke-width="1"/>
    </g>
  </g>
</svg>
